<svg width="269" height="97" viewBox="0 0 269 97" fill="none" xmlns="http://www.w3.org/2000/svg">
<path d="M47.7524 1C30.0537 5.04929 14.0513 13.651 1 25.5311V47.2977C20.0389 27.3161 46.7201 14.894 76.2571 14.894C82.338 14.894 88.298 15.4201 94.0949 16.4306V4.36316C94.0949 2.51364 92.6056 1 90.7842 1H47.7524" fill="black"/>
<path d="M47.7524 1C30.0537 5.04929 14.0513 13.651 1 25.5311V47.2977C20.0389 27.3161 46.7201 14.894 76.2571 14.894C82.338 14.894 88.298 15.4201 94.0949 16.4306V4.36316C94.0949 2.51364 92.6056 1 90.7842 1H47.7524" stroke="white"/>
<path d="M76.2571 14.894C46.7201 14.894 20.0389 27.3161 1 47.2977V69.9061C20.2092 46.374 49.2078 31.3869 81.6519 31.3869C85.8627 31.3869 90.0149 31.6395 94.0949 32.1297V16.4306C88.298 15.4201 82.338 14.894 76.2571 14.894" fill="black"/>
<path d="M76.2571 14.894C46.7201 14.894 20.0389 27.3161 1 47.2977V69.9061C20.2092 46.374 49.2078 31.3869 81.6519 31.3869C85.8627 31.3869 90.0149 31.6395 94.0949 32.1297V16.4306C88.298 15.4201 82.338 14.894 76.2571 14.894" stroke="white"/>
<path d="M81.6519 31.3869C49.2078 31.3869 20.2092 46.374 1 69.9061V92.2159C1 92.6071 1.06712 92.9839 1.18934 93.3341C20.1244 65.8511 51.5202 47.8797 87.0475 47.8797C89.4157 47.8797 91.7656 47.9594 94.0949 48.1166V32.1297C90.0149 31.6395 85.8627 31.3869 81.6519 31.3869" fill="black"/>
<path d="M81.6519 31.3869C49.2078 31.3869 20.2092 46.374 1 69.9061V92.2159C1 92.6071 1.06712 92.9839 1.18934 93.3341C20.1244 65.8511 51.5202 47.8797 87.0475 47.8797C89.4157 47.8797 91.7656 47.9594 94.0949 48.1166V32.1297C90.0149 31.6395 85.8627 31.3869 81.6519 31.3869" stroke="white"/>
<path d="M87.0475 47.8797C51.5201 47.8797 20.1244 65.851 1.18933 93.3341C1.64573 94.6388 2.87506 95.5798 4.31138 95.5798H21.7317C40.3305 76.7494 65.8601 64.9783 94.0949 64.5584V48.1165C91.7656 47.9594 89.4157 47.8797 87.0475 47.8797" fill="black"/>
<path d="M87.0475 47.8797C51.5201 47.8797 20.1244 65.851 1.18933 93.3341C1.64573 94.6388 2.87506 95.5798 4.31138 95.5798H21.7317C40.3305 76.7494 65.8601 64.9783 94.0949 64.5584V48.1165C91.7656 47.9594 89.4157 47.8797 87.0475 47.8797" stroke="white"/>
<path d="M94.095 64.5585C65.8601 64.9783 40.3305 76.7494 21.7318 95.5798H48.1713C61.8104 87.4583 77.42 82.3827 94.095 81.2709V64.5585" fill="black"/>
<path d="M94.095 64.5585C65.8601 64.9783 40.3305 76.7494 21.7318 95.5798H48.1713C61.8104 87.4583 77.42 82.3827 94.095 81.2709V64.5585" stroke="white"/>
<path d="M94.0949 81.2709C77.42 82.3827 61.8104 87.4583 48.1713 95.5798H90.7843C92.6056 95.5798 94.0949 94.0662 94.0949 92.2159V81.2709" fill="black"/>
<path d="M94.0949 81.2709C77.42 82.3827 61.8104 87.4583 48.1713 95.5798H90.7843C92.6056 95.5798 94.0949 94.0662 94.0949 92.2159V81.2709" stroke="white"/>
<path d="M47.7524 1H4.3114C2.49002 1 1 2.51364 1 4.36316V25.5311C14.0513 13.651 30.0537 5.04929 47.7524 1" fill="black"/>
<path d="M47.7524 1H4.3114C2.49002 1 1 2.51364 1 4.36316V25.5311C14.0513 13.651 30.0537 5.04929 47.7524 1" stroke="white"/>
<path d="M50.6123 45.222C51.8522 47.5754 52.452 50.8689 53.0533 51.1775C55.2272 52.2957 56.3795 47.4117 56.9094 45.1065C57.44 42.8019 56.3661 23.5409 61.8012 24.0935C67.2357 24.6469 59.8767 42.2988 62.8878 43.4479C67.2357 45.1065 67.0167 35.172 69.9536 30.1761C71.2762 27.9268 73.6635 26.3435 74.8447 26.8581C75.6396 27.2048 76.6774 28.3897 76.4754 29.6235C75.9321 32.9414 68.1216 45.0268 69.9536 46.2132C73.1618 48.2895 78.6493 31.2821 83.5404 33.494C88.4316 35.706 73.2141 48.4366 74.8447 51.7424C76.4754 55.0488 86.2577 43.4479 87.8883 45.1065C89.5189 46.7658 89.5189 48.9778 85.7143 51.7424C81.9098 54.5077 78.106 56.1663 76.4754 58.3668C74.8447 60.5666 70.1331 68.991 67.2357 71.0967C63.7929 73.5993 58.54 72.2027 56.3661 71.0967C54.1921 69.9907 52.5615 67.7788 50.9316 64.4608C49.301 61.1429 50.336 56.7075 48.7054 55.0488C48.533 54.873 48.0908 54.3921 47.5475 53.7139C47.0049 54.3921 46.5626 54.873 46.3902 55.0488C44.7596 56.7075 45.7946 61.1429 44.164 64.4608C42.5334 67.7788 40.9035 69.9907 38.7296 71.0967C36.5556 72.2027 31.3028 73.5993 27.86 71.0967C24.9619 68.991 20.2509 60.5666 18.6203 58.3668C16.9896 56.1663 13.1858 54.5077 9.38128 51.7424C5.57674 48.9778 5.57674 46.7658 7.20736 45.1065C8.83727 43.4479 18.6203 55.0488 20.2509 51.7424C21.8815 48.4366 6.66335 35.706 11.5552 33.494C16.4463 31.2821 21.9331 48.2895 25.142 46.2132C26.974 45.0268 19.1636 32.9414 18.6203 29.6235C18.4182 28.3897 19.4561 27.2048 20.2509 26.8581C21.4322 26.3435 23.8194 27.9268 25.142 30.1761C28.079 35.172 27.86 45.1065 32.2078 43.4479C35.2189 42.2988 27.86 24.6469 33.2944 24.0935C38.7296 23.5402 37.6557 42.8019 38.1855 45.1065C38.7161 47.4117 39.8684 52.2957 42.0424 51.1775C42.6436 50.8689 43.2434 47.5754 44.4833 45.222C44.6331 44.8366 44.855 44.472 45.1623 44.1376C45.8003 43.3022 46.5774 42.7668 47.5475 42.85C48.5175 42.7668 49.2954 43.3022 49.9333 44.1376C50.2407 44.472 50.4625 44.8366 50.6123 45.222" fill="white"/>
<path d="M107.134 73.1417H266.922" stroke="black" stroke-width="0.493" stroke-linecap="square"/>
<path fill-rule="evenodd" clip-rule="evenodd" d="M118.975 16.0539L117.693 12.9721H110.923L109.64 16.0539H107.281L113.208 2.41467H115.53L121.391 16.0539H118.975ZM111.766 10.9274H116.832L114.303 4.8685L111.766 10.9274Z" fill="black"/>
<path fill-rule="evenodd" clip-rule="evenodd" d="M123.17 2.41467H128.526C130.202 2.41467 131.522 2.82376 132.44 3.63262C133.367 4.44075 133.835 5.59123 133.835 7.07544C133.835 8.62569 133.367 9.82425 132.44 10.6704C131.513 11.5173 130.211 11.9451 128.526 11.9451H125.436V16.0539H123.17V2.41467ZM128.433 4.47879H125.436V9.88095L128.433 9.88167C129.471 9.88167 130.286 9.64339 130.838 9.18693C131.391 8.73047 131.672 8.03573 131.672 7.13214C131.672 6.25726 131.391 5.5819 130.838 5.14482C130.286 4.70702 129.481 4.47879 128.433 4.47879Z" fill="black"/>
<path fill-rule="evenodd" clip-rule="evenodd" d="M136.073 2.41467H141.428C143.104 2.41467 144.424 2.82376 145.342 3.63262C146.269 4.44075 146.737 5.59123 146.737 7.07544C146.737 8.62569 146.269 9.82425 145.342 10.6704C144.415 11.5173 143.113 11.9451 141.428 11.9451H138.338V16.0539H136.073V2.41467ZM141.334 4.47879H138.338V9.88095L141.334 9.88167C142.374 9.88167 143.188 9.64339 143.741 9.18693C144.293 8.73047 144.574 8.03573 144.574 7.13214C144.574 6.25726 144.293 5.5819 143.741 5.14482C143.188 4.70702 142.383 4.47879 141.334 4.47879Z" fill="black"/>
<path fill-rule="evenodd" clip-rule="evenodd" d="M160.061 16.0539H157.495L155.042 11.9264C154.92 11.9357 154.715 11.9451 154.424 11.9451H151.241V16.0539H148.975V2.41467H154.424C156.128 2.41467 157.467 2.82376 158.412 3.63262C159.358 4.44075 159.836 5.59123 159.836 7.07544C159.836 8.16923 159.592 9.09148 159.115 9.84291C158.637 10.5943 157.945 11.1463 157.055 11.4979L160.061 16.0539ZM151.241 9.88095H154.424V9.88167C155.463 9.88167 156.287 9.64339 156.84 9.18693C157.392 8.73047 157.683 8.03573 157.683 7.13214C157.683 6.25726 157.401 5.5819 156.84 5.14482C156.278 4.70702 155.473 4.47879 154.424 4.47879H151.241V9.88095Z" fill="black"/>
<path fill-rule="evenodd" clip-rule="evenodd" d="M165.229 3.27089C166.305 2.67161 167.523 2.35797 168.834 2.35797C170.145 2.35797 171.362 2.66228 172.439 3.27089C173.525 3.87017 174.396 4.69769 175.013 5.75343C175.631 6.79984 175.95 7.95965 175.949 9.2343C175.949 10.5183 175.641 11.6881 175.013 12.7439C174.386 13.7996 173.534 14.6271 172.439 15.2365C171.352 15.8451 170.154 16.1494 168.834 16.1494C167.514 16.1494 166.315 15.835 165.229 15.2365C164.143 14.6372 163.291 13.7903 162.663 12.7439C162.036 11.6982 161.727 10.5183 161.727 9.2343C161.727 7.95032 162.046 6.78046 162.663 5.74338C163.282 4.70702 164.152 3.87017 165.229 3.27089ZM171.25 5.06874C170.528 4.64027 169.723 4.42137 168.852 4.42137C167.981 4.42137 167.177 4.64027 166.437 5.06874C165.697 5.49649 165.116 6.08644 164.676 6.8185C164.236 7.55056 164.021 8.35008 164.021 9.2343C164.021 10.1192 164.246 10.9274 164.686 11.6695C165.126 12.4116 165.725 13.0008 166.446 13.4386C167.177 13.8664 167.991 14.0853 168.852 14.0853C169.714 14.0853 170.528 13.8664 171.25 13.4479C171.97 13.0202 172.56 12.4209 172.981 11.6788C173.403 10.9367 173.628 10.1099 173.628 9.2343C173.628 8.35941 173.412 7.54123 172.981 6.8185C172.56 6.08644 171.979 5.49649 171.25 5.06874Z" fill="black"/>
<path fill-rule="evenodd" clip-rule="evenodd" d="M188.309 16.0539L187.026 12.9721H180.257L178.974 16.0539H176.614L182.542 2.41467H184.863L190.724 16.0539H188.309ZM181.1 10.9274H186.165L183.637 4.8685L181.1 10.9274Z" fill="black"/>
<path d="M198.449 2.35797C197.147 2.35797 195.949 2.67161 194.872 3.27089C193.796 3.87017 192.934 4.70702 192.326 5.74338C191.717 6.78046 191.398 7.95032 191.398 9.21564C191.398 10.4996 191.708 11.6788 192.316 12.7345C192.925 13.7903 193.767 14.6372 194.835 15.2365C195.902 15.835 197.082 16.1494 198.374 16.1494C199.311 16.1494 200.238 15.9491 201.155 15.5501C202.072 15.1503 202.878 14.6085 203.571 13.9137L202.232 12.3922C201.726 12.896 201.127 13.3051 200.471 13.5814C199.816 13.857 199.142 14.0092 198.486 14.0092C197.616 14.0092 196.792 13.7996 196.061 13.3719C195.341 12.9441 194.751 12.3542 194.329 11.6221C193.908 10.8893 193.692 10.0812 193.692 9.19626C193.692 8.31205 193.908 7.50319 194.329 6.77113C194.751 6.03836 195.331 5.45845 196.061 5.04003C196.801 4.61156 197.607 4.40271 198.486 4.40271C199.17 4.40271 199.835 4.56419 200.5 4.87855C201.164 5.18285 201.745 5.61994 202.232 6.14314L203.552 4.45941C202.906 3.80343 202.119 3.28955 201.22 2.91922C200.331 2.54816 199.395 2.35797 198.449 2.35797" fill="black"/>
<path d="M217.512 16.0539V2.41467H215.247V8.34076H208.131V2.41467H205.865V16.0539H208.131V10.4042H215.247V16.0539H217.512" fill="black"/>
<path d="M120.67 39.4295V25.7903H118.404V31.7156H111.288V25.7903H109.023V39.4295H111.288V33.7798H118.404V39.4295H120.67" fill="black"/>
<path d="M133.77 27.8537V25.7903H124.182V39.4295H134.003V37.3654H126.447V33.6082H133.002V31.5441H126.447V27.8537H133.77" fill="black"/>
<path d="M139.022 37.346V25.7903H136.756V39.4295H144.836V37.346H139.022" fill="black"/>
<path fill-rule="evenodd" clip-rule="evenodd" d="M146.99 25.7903H152.346C154.021 25.7903 155.342 26.1994 156.259 27.0075C157.186 27.8156 157.654 28.9668 157.654 30.4503C157.654 32.0006 157.186 33.1991 156.259 34.046C155.332 34.8922 154.031 35.3207 152.346 35.3207H149.255V39.4295H146.99V25.7903ZM152.252 27.8537H149.255V33.2566H152.252C153.291 33.2566 154.106 33.019 154.658 32.5625C155.211 32.1054 155.492 31.4113 155.492 30.5078C155.492 29.6329 155.211 28.9575 154.658 28.5197C154.106 28.0819 153.3 27.8537 152.252 27.8537Z" fill="black"/>
<path d="M159.892 39.4295H162.158V25.7903H159.892V39.4295Z" fill="black"/>
<path d="M177.326 39.4295V25.7903H175.098V35.5963L167.907 25.7903H165.679V39.4295H167.945V29.6515L175.098 39.4295H177.326" fill="black"/>
<path d="M190.051 32.7241V36.5286C189.573 36.8229 189.058 37.0612 188.524 37.2226C187.991 37.3748 187.466 37.4609 186.97 37.4609C186.081 37.4609 185.238 37.2513 184.489 36.8229C183.749 36.3951 183.141 35.8059 182.71 35.0638C182.28 34.3217 182.054 33.5035 182.054 32.61C182.054 31.725 182.27 30.9169 182.71 30.1748C183.15 29.4327 183.74 28.8528 184.489 28.425C185.238 27.9965 186.062 27.7776 186.951 27.7776C187.653 27.7776 188.337 27.9205 189.011 28.1867C189.695 28.453 190.294 28.8528 190.818 29.3379L192.111 27.6449C191.446 27.0643 190.65 26.5985 189.742 26.2561C188.833 25.9044 187.897 25.7329 186.951 25.7329C185.631 25.7329 184.395 26.0465 183.3 26.6458C182.204 27.2451 181.334 28.082 180.706 29.119C180.079 30.1554 179.76 31.326 179.76 32.61C179.761 33.8745 180.07 35.0545 180.688 36.1102C181.305 37.1659 182.157 38.0121 183.234 38.6114C184.311 39.2107 185.509 39.5243 186.811 39.5243C187.719 39.5243 188.646 39.3628 189.582 39.0399C190.519 38.7162 191.334 38.2877 192.026 37.7552V32.7241H190.051" fill="black"/>
<path d="M211.81 39.4295V25.7903H209.544V31.7156H202.428V25.7903H200.163V39.4295H202.428V33.7798H209.544V39.4295H211.81" fill="black"/>
<path fill-rule="evenodd" clip-rule="evenodd" d="M225.275 39.4295L223.992 36.3477H217.222L215.94 39.4295H213.58L219.507 25.7903H221.829L227.69 39.4295H225.275ZM218.065 34.303H223.131L220.602 28.2441L218.065 34.303Z" fill="black"/>
<path d="M241.117 39.4295V25.7903H238.888V35.5963L231.698 25.7903H229.469V39.4295H231.735V29.6515L238.888 39.4295H241.117" fill="black"/>
<path fill-rule="evenodd" clip-rule="evenodd" d="M244.656 25.7903H250.161C251.482 25.7903 252.689 26.0845 253.738 26.6745C254.787 27.2551 255.62 28.0726 256.21 29.1097C256.8 30.146 257.109 31.3066 257.109 32.6099C257.109 33.9125 256.809 35.0731 256.201 36.1102C255.602 37.1465 254.768 37.9554 253.71 38.5446C252.652 39.1346 251.444 39.4295 250.106 39.4295H244.656V25.7903ZM250.124 27.8537H246.922V37.3654H250.217C251.069 37.3654 251.856 37.1558 252.558 36.7661C253.261 36.3664 253.823 35.7958 254.215 35.0824C254.618 34.3697 254.824 33.5322 254.824 32.6286C254.824 31.725 254.618 30.8975 254.197 30.1841C253.785 29.4613 253.223 28.8814 252.502 28.4723C251.781 28.0633 250.994 27.8537 250.124 27.8537Z" fill="black"/>
<path d="M263.925 25.6948C262.961 25.6948 262.099 25.8563 261.369 26.1613C260.639 26.4649 260.049 26.9221 259.646 27.4927C259.244 28.0539 259.037 28.7386 259.037 29.4994C259.037 30.3362 259.234 31.0216 259.637 31.5255C260.04 32.02 260.527 32.4104 261.078 32.6666C261.641 32.9235 262.381 33.1991 263.298 33.4654C263.981 33.6656 264.524 33.8652 264.908 34.0173C265.301 34.1601 265.629 34.3884 265.891 34.6546C266.153 34.9209 266.285 35.2826 266.285 35.6917C266.285 36.2049 266.06 36.6233 265.62 36.909C265.189 37.1939 264.561 37.346 263.775 37.346C263.055 37.346 262.268 37.1752 261.463 36.8329C260.667 36.4805 259.908 35.996 259.234 35.3587L258.251 37.346C258.972 38.0027 259.805 38.5353 260.76 38.925C261.725 39.3061 262.718 39.5056 263.738 39.5056C264.721 39.5056 265.601 39.3441 266.36 39.0204C267.128 38.6968 267.727 38.2403 268.158 37.641C268.588 37.0417 268.803 36.3384 268.803 35.5489C268.803 34.702 268.597 34.0173 268.195 33.4941C267.802 32.9709 267.305 32.5719 266.734 32.3056C266.172 32.0386 265.423 31.7723 264.524 31.4967C263.841 31.2972 263.288 31.107 262.905 30.9455C262.53 30.7833 262.202 30.5644 261.95 30.2888C261.706 30.0133 261.575 29.6802 261.575 29.2805C261.575 28.824 261.771 28.4723 262.156 28.2247C262.539 27.9778 263.073 27.8537 263.757 27.8537C264.309 27.8537 264.927 27.9678 265.611 28.168C266.303 28.3676 266.996 28.7006 267.689 29.1283L268.625 27.1022C267.998 26.6745 267.258 26.3321 266.444 26.0752C265.629 25.8183 264.777 25.6948 263.925 25.6948" fill="black"/>
<path d="M118.02 51.2293L118.039 49.1652H109.023V62.8045H111.288V57.2121H117.384V55.1667H111.288V51.2293H118.02" fill="black"/>
<path fill-rule="evenodd" clip-rule="evenodd" d="M122.44 50.0214C123.517 49.4222 124.734 49.1085 126.044 49.1085C127.355 49.1085 128.572 49.4128 129.649 50.0214C130.736 50.6207 131.606 51.4482 132.224 52.504C132.842 53.5504 133.16 54.7102 133.16 55.9848C133.16 57.2688 132.852 58.4387 132.224 59.4944C131.597 60.5502 130.745 61.3777 129.649 61.987C128.563 62.5956 127.365 62.8999 126.044 62.8999C124.724 62.8999 123.526 62.5856 122.44 61.987C121.353 61.3877 120.502 60.5408 119.875 59.4944C119.247 58.4487 118.938 57.2688 118.938 55.9848C118.938 54.7009 119.256 53.531 119.875 52.4939C120.492 51.4576 121.363 50.6207 122.44 50.0214ZM128.46 51.8193C127.739 51.3908 126.934 51.1719 126.064 51.1719H126.063C125.192 51.1719 124.387 51.3908 123.647 51.8193C122.908 52.247 122.328 52.8363 121.887 53.5691C121.447 54.3011 121.232 55.1006 121.232 55.9848C121.232 56.8698 121.456 57.6779 121.897 58.42C122.337 59.1614 122.936 59.7514 123.657 60.1892C124.387 60.6169 125.202 60.8358 126.063 60.8358C126.925 60.8358 127.739 60.6169 128.46 60.1985C129.181 59.7707 129.771 59.1715 130.192 58.4293C130.613 57.6872 130.838 56.8597 130.838 55.9848C130.838 55.11 130.623 54.2918 130.192 53.5691C129.771 52.8363 129.191 52.247 128.46 51.8193Z" fill="black"/>
<path d="M146.98 57.1547V49.1652H144.715V57.1547C144.715 58.3059 144.387 59.2188 143.759 59.8655C143.132 60.5028 142.262 60.8358 141.166 60.8358C140.061 60.8358 139.171 60.5121 138.526 59.8561C137.889 59.1994 137.561 58.2966 137.561 57.1547V49.1652H135.305V57.1547C135.305 58.3246 135.539 59.3616 136.007 60.2272C136.485 61.0827 137.159 61.7588 138.029 62.2152C138.9 62.6617 139.939 62.8999 141.147 62.8999C142.355 62.8999 143.394 62.6717 144.265 62.2152C145.136 61.7487 145.81 61.0927 146.278 60.2272C146.747 59.3616 146.98 58.3346 146.98 57.1547" fill="black"/>
<path d="M161.858 62.8045V49.1652H159.63V58.9712L152.439 49.1652H150.211V62.8045H152.476V53.0272L159.63 62.8045H161.858" fill="black"/>
<path fill-rule="evenodd" clip-rule="evenodd" d="M165.398 49.1652H170.903C172.223 49.1652 173.431 49.4602 174.48 50.0502C175.528 50.6301 176.361 51.4482 176.951 52.4846C177.541 53.5217 177.85 54.6822 177.85 55.9848C177.85 57.2882 177.55 58.4487 176.942 59.4851C176.343 60.5222 175.51 61.3303 174.451 61.9203C173.393 62.5095 172.186 62.8045 170.847 62.8045H165.398V49.1652ZM170.865 51.2293H167.663V60.7404H170.959C171.811 60.7404 172.598 60.5315 173.3 60.1418C174.002 59.742 174.564 59.1715 174.957 58.4581C175.359 57.7447 175.566 56.9078 175.566 56.0042C175.566 55.1006 175.36 54.2731 174.938 53.5597C174.526 52.8363 173.965 52.2564 173.243 51.8473C172.523 51.4389 171.736 51.2293 170.865 51.2293Z" fill="black"/>
<path fill-rule="evenodd" clip-rule="evenodd" d="M190.209 62.8045L188.927 59.7227H182.157L180.874 62.8045H178.515L184.442 49.1652H186.764L192.625 62.8045H190.209ZM183 57.6779H188.065L185.537 51.6191L183 57.6779Z" fill="black"/>
<path d="M203.57 51.2293V49.1652H192.812V51.2293H197.054V62.8045H199.32V51.2293H203.57" fill="black"/>
<path d="M205.5 62.8045H207.765V49.1652H205.5V62.8045Z" fill="black"/>
<path fill-rule="evenodd" clip-rule="evenodd" d="M213.682 50.0214C214.76 49.4222 215.977 49.1085 217.288 49.1085C218.598 49.1085 219.816 49.4128 220.892 50.0214C221.978 50.6207 222.849 51.4482 223.467 52.504C224.085 53.5504 224.404 54.7102 224.404 55.9848C224.404 57.2688 224.095 58.4387 223.467 59.4944C222.84 60.5502 221.988 61.3777 220.892 61.987C219.806 62.5956 218.607 62.8999 217.288 62.8999C215.967 62.8999 214.769 62.5856 213.682 61.987C212.596 61.3877 211.744 60.5408 211.117 59.4944C210.49 58.4487 210.181 57.2688 210.181 55.9848C210.181 54.7009 210.5 53.531 211.117 52.4939C211.735 51.4576 212.606 50.6207 213.682 50.0214ZM219.703 51.8193C218.982 51.3908 218.177 51.1719 217.306 51.1719C216.436 51.1719 215.63 51.3908 214.89 51.8193C214.151 52.247 213.57 52.8363 213.131 53.5691C212.69 54.3011 212.475 55.1006 212.475 55.9848C212.475 56.8698 212.7 57.6779 213.14 58.42C213.58 59.1614 214.179 59.7514 214.9 60.1892C215.63 60.6169 216.445 60.8358 217.306 60.8358C218.167 60.8358 218.982 60.6169 219.703 60.1985C220.424 59.7707 221.014 59.1715 221.436 58.4293C221.857 57.6872 222.081 56.8597 222.081 55.9848C222.081 55.11 221.866 54.2918 221.436 53.5691C221.014 52.8363 220.434 52.247 219.703 51.8193Z" fill="black"/>
<path d="M238.458 62.8045V49.1652H236.229V58.9712L229.038 49.1652H226.81V62.8045H229.076V53.0272L236.229 62.8045H238.458" fill="black"/>
<path fill-rule="evenodd" clip-rule="evenodd" d="M157.94 84.8272C157.401 84.2645 156.655 83.9839 155.698 83.9839C154.147 83.999 153.107 84.6205 152.581 85.8506V80.6982H151.393V92.1815H152.581V88.1767C152.581 87.2875 152.822 86.5676 153.304 86.0207C153.784 85.4746 154.447 85.1961 155.29 85.1853C155.998 85.1853 156.554 85.3863 156.955 85.7889C157.355 86.1937 157.556 86.7535 157.556 87.4755V92.1815H158.747V87.1504C158.747 86.1628 158.478 85.3892 157.94 84.8272ZM113.382 82.542V92.1815H112.164V82.542H108.696V81.3478H116.871V82.542H113.382ZM120.595 83.999C121.379 83.999 122.08 84.1719 122.696 84.5171C123.313 84.8631 123.796 85.3482 124.143 85.9719C124.491 86.5963 124.664 87.3026 124.664 88.0942C124.664 88.9016 124.491 89.6157 124.143 90.2401C123.796 90.8638 123.313 91.3511 122.696 91.7021C122.08 92.053 121.379 92.2282 120.595 92.2282C119.812 92.2282 119.112 92.053 118.49 91.7021C117.87 91.3511 117.388 90.8638 117.045 90.2401C116.7 89.6157 116.527 88.9016 116.527 88.0942C116.527 87.2975 116.7 86.5906 117.045 85.9669C117.388 85.3454 117.87 84.8631 118.49 84.5171C119.112 84.1719 119.812 83.999 120.595 83.999ZM119.109 85.4796C119.548 85.2241 120.046 85.0949 120.595 85.0949C121.14 85.0949 121.635 85.2241 122.08 85.4796C122.524 85.7372 122.866 86.0932 123.11 86.5447C123.351 86.9983 123.473 87.5193 123.473 88.11C123.473 88.6978 123.351 89.221 123.11 89.6803C122.866 90.1396 122.524 90.4978 122.082 90.7583C121.643 91.016 121.145 91.148 120.595 91.148C120.046 91.148 119.548 91.016 119.109 90.7583C118.667 90.4978 118.325 90.1396 118.081 89.6803C117.84 89.221 117.718 88.6978 117.718 88.11C117.718 87.5243 117.84 87.0061 118.081 86.5497C118.325 86.0932 118.667 85.7372 119.109 85.4796ZM133.737 91.3282C133.737 92.1148 133.569 92.8009 133.232 93.3865C132.894 93.9743 132.421 94.4251 131.815 94.7401C131.208 95.0545 130.503 95.2117 129.698 95.2117C128.51 95.2016 127.413 94.8126 126.413 94.0411L126.953 93.1102C127.36 93.4533 127.781 93.7088 128.218 93.8789C128.654 94.0461 129.134 94.1365 129.655 94.1466C130.528 94.1466 131.226 93.894 131.754 93.3865C132.282 92.8806 132.546 92.2052 132.546 91.359V90.1267C132.265 90.6758 131.868 91.0963 131.36 91.3877C130.853 91.6813 130.264 91.8262 129.593 91.8262C128.885 91.8262 128.253 91.6583 127.697 91.3231C127.144 90.9901 126.71 90.5215 126.4 89.9229C126.09 89.3243 125.936 88.6439 125.936 87.8832C125.936 87.1274 126.088 86.4564 126.392 85.8686C126.697 85.2837 127.123 84.8215 127.672 84.4863C128.221 84.1511 128.847 83.9839 129.558 83.9839C130.236 83.9839 130.83 84.131 131.338 84.4224C131.848 84.716 132.249 85.1365 132.546 85.6827V84.0298H133.737V91.3282ZM131.223 90.4332C130.807 90.6808 130.332 90.8071 129.802 90.8071C129.276 90.8071 128.807 90.6808 128.39 90.4332C127.974 90.1834 127.647 89.8404 127.408 89.4047C127.169 88.9683 127.05 88.476 127.05 87.9291C127.05 87.37 127.169 86.8691 127.408 86.4313C127.647 85.9949 127.974 85.6518 128.39 85.4042C128.807 85.1573 129.276 85.0332 129.802 85.0332C130.332 85.0332 130.807 85.1573 131.223 85.4042C131.64 85.6518 131.965 85.9949 132.198 86.4313C132.432 86.8691 132.546 87.37 132.546 87.9291C132.546 88.471 132.432 88.9633 132.198 89.4018C131.965 89.8404 131.64 90.1834 131.223 90.4332ZM139.626 83.999C140.885 83.999 141.835 84.4095 142.474 85.227C143.114 86.0466 143.401 87.1633 143.338 88.5794H136.793C136.892 89.3731 137.205 90.0054 137.732 90.4748C138.261 90.9442 138.918 91.176 139.7 91.176C140.197 91.176 140.654 91.0884 141.075 90.9126C141.497 90.7353 141.868 90.4849 142.185 90.1576L142.84 90.8667C142.452 91.3002 141.982 91.6353 141.431 91.8722C140.878 92.1097 140.271 92.2282 139.611 92.2282C138.829 92.2282 138.134 92.0552 137.529 91.71C136.925 91.364 136.456 90.8796 136.12 90.2552C135.785 89.6315 135.618 88.9145 135.618 88.11C135.618 87.3026 135.788 86.5906 136.128 85.9669C136.465 85.3454 136.94 84.8631 137.552 84.5171C138.162 84.1719 138.852 83.999 139.626 83.999ZM141.489 85.7222C141.972 86.1808 142.233 86.8023 142.274 87.5889H136.793C136.882 86.8131 137.182 86.1937 137.689 85.7293C138.197 85.265 138.834 85.0332 139.596 85.0332C140.375 85.0332 141.008 85.2628 141.489 85.7222ZM149.524 91.6224C148.945 92.0243 148.339 92.231 147.709 92.2411C147.09 92.2411 146.595 92.0502 146.222 91.6633C145.851 91.2794 145.666 90.6987 145.666 89.9229V85.2679H144.513V84.2932H145.666V82.1401H146.841V84.2932L149.382 84.2724V85.2679H146.841V89.7033C146.841 90.1884 146.93 90.5365 147.108 90.7504C147.285 90.9643 147.554 91.0705 147.909 91.0705C148.326 91.0705 148.752 90.9313 149.189 90.6478L149.524 91.6224ZM164.594 83.999C165.853 83.999 166.802 84.4095 167.442 85.227C168.082 86.0466 168.368 87.1633 168.305 88.5794H161.761C161.859 89.3731 162.172 90.0054 162.699 90.4748C163.228 90.9442 163.885 91.176 164.667 91.176C165.164 91.176 165.622 91.0884 166.043 90.9126C166.464 90.7353 166.835 90.4849 167.153 90.1576L167.808 90.8667C167.419 91.3002 166.949 91.6353 166.398 91.8722C165.845 92.1097 165.238 92.2282 164.578 92.2282C163.796 92.2282 163.101 92.0552 162.497 91.71C161.892 91.364 161.423 90.8796 161.087 90.2552C160.752 89.6315 160.585 88.9145 160.585 88.11C160.585 87.3026 160.755 86.5906 161.095 85.9669C161.433 85.3454 161.907 84.8631 162.519 84.5171C163.128 84.1719 163.819 83.999 164.594 83.999ZM166.457 85.7222C166.939 86.1808 167.201 86.8023 167.241 87.5889H161.761C161.849 86.8131 162.149 86.1937 162.656 85.7293C163.164 85.265 163.802 85.0332 164.563 85.0332C165.343 85.0332 165.975 85.2628 166.457 85.7222ZM171.532 85.8349C171.801 85.242 172.177 84.7856 172.661 84.4712C173.149 84.1561 173.729 83.9939 174.411 83.9839V85.2011C173.578 85.1904 172.907 85.425 172.402 85.9073C171.897 86.3868 171.605 87.037 171.532 87.8516V92.1815H170.348V84.0298H171.532V85.8349ZM186.547 83.0552L189.426 92.1815H190.675L194.252 81.3478H192.987L190.096 90.7454L187.172 81.3478L185.953 81.3636L183.06 90.7454L180.13 81.3478H178.82L182.389 92.1815H183.633L186.547 83.0552ZM198.121 83.999C199.38 83.999 200.329 84.4095 200.97 85.227C201.609 86.0466 201.896 87.1633 201.832 88.5794H195.288C195.387 89.3731 195.699 90.0054 196.227 90.4748C196.755 90.9442 197.412 91.176 198.194 91.176C198.692 91.176 199.149 91.0884 199.571 90.9126C199.992 90.7353 200.363 90.4849 200.68 90.1576L201.335 90.8667C200.946 91.3002 200.477 91.6353 199.926 91.8722C199.372 92.1097 198.766 92.2282 198.106 92.2282C197.324 92.2282 196.628 92.0552 196.024 91.71C195.42 91.364 194.95 90.8796 194.615 90.2552C194.28 89.6315 194.112 88.9145 194.112 88.11C194.112 87.3026 194.282 86.5906 194.623 85.9669C194.96 85.3454 195.435 84.8631 196.047 84.5171C196.656 84.1719 197.347 83.999 198.121 83.999ZM199.984 85.7222C200.466 86.1808 200.728 86.8023 200.769 87.5889H195.288C195.377 86.8131 195.676 86.1937 196.184 85.7293C196.692 85.265 197.329 85.0332 198.091 85.0332C198.87 85.0332 199.502 85.2628 199.984 85.7222ZM212.766 81.3169C213.49 81.3169 214.19 81.4561 214.871 81.7375C215.548 82.0159 216.15 82.4028 216.67 82.8951L215.934 83.8418C215.518 83.4191 215.033 83.086 214.479 82.8435C213.926 82.6016 213.36 82.4803 212.782 82.4803C211.987 82.4803 211.258 82.6712 210.593 83.0502C209.93 83.432 209.405 83.9473 209.022 84.6004C208.636 85.2528 208.445 85.9698 208.445 86.7506C208.445 87.5243 208.636 88.2413 209.022 88.8966C209.405 89.5511 209.93 90.0672 210.599 90.449C211.263 90.8279 211.992 91.0188 212.782 91.0188C213.36 91.0188 213.923 90.9054 214.472 90.6786C215.021 90.4511 215.508 90.1317 215.934 89.7191L216.686 90.5724C216.145 91.0856 215.531 91.4932 214.84 91.7925C214.152 92.0918 213.444 92.2411 212.72 92.2411C211.715 92.2411 210.791 91.9985 209.951 91.509C209.111 91.0217 208.443 90.3557 207.951 89.5152C207.455 88.6748 207.209 87.7511 207.209 86.7506C207.209 85.7581 207.458 84.8473 207.958 84.0169C208.456 83.1894 209.128 82.532 209.976 82.0468C210.824 81.5595 211.753 81.3169 212.766 81.3169ZM220.745 92.2411C222.065 92.2411 223.042 91.8026 223.682 90.9284V92.1815H224.842L224.827 86.7944C224.82 85.9073 224.548 85.2191 224.015 84.7238C223.482 84.2315 222.72 83.9839 221.735 83.9839C221.085 83.9839 220.519 84.0715 220.04 84.2437C219.557 84.4195 219.031 84.698 218.463 85.0798L218.961 85.964C219.844 85.3454 220.692 85.0332 221.504 85.0332C222.207 85.0332 222.743 85.1982 223.106 85.5284C223.472 85.8585 223.654 86.3279 223.654 86.9394V87.4138H221.019C220.072 87.4238 219.336 87.6377 218.808 88.0554C218.28 88.4731 218.016 89.038 218.016 89.7499C218.016 90.2164 218.128 90.642 218.354 91.0217C218.579 91.4028 218.899 91.6999 219.313 91.916C219.727 92.1327 220.204 92.2411 220.745 92.2411ZM220.976 91.1918C221.654 91.1918 222.235 91.0289 222.715 90.7045C223.198 90.3794 223.515 89.9329 223.667 89.3631V88.3884H221.169C219.811 88.3884 219.13 88.827 219.13 89.7033C219.13 90.1576 219.298 90.5186 219.633 90.7863C219.968 91.0576 220.415 91.1918 220.976 91.1918ZM234.025 84.8272C233.486 84.2645 232.74 83.9839 231.783 83.9839C230.26 83.999 229.224 84.6104 228.673 85.8198V84.0298H227.49V92.1815H228.673V87.7999C228.747 87.0191 229.021 86.3896 229.49 85.9152C229.962 85.438 230.59 85.1961 231.374 85.1853C232.083 85.1853 232.639 85.3863 233.039 85.7889C233.441 86.1937 233.641 86.7535 233.641 87.4755V92.1815H234.832V87.1504C234.832 86.1628 234.562 85.3892 234.025 84.8272ZM238.104 88.9167H237.309L237.147 84.1511V81.5365H238.284V84.1511L238.104 88.9167ZM238.238 90.9284C238.094 90.7712 237.916 90.6937 237.703 90.6937C237.5 90.6937 237.327 90.7712 237.188 90.9284C237.045 91.0834 236.975 91.2743 236.975 91.5011C236.975 91.7279 237.045 91.9188 237.188 92.0739C237.327 92.2253 237.5 92.3028 237.703 92.3028C237.916 92.3028 238.094 92.2253 238.238 92.0739C238.383 91.9188 238.455 91.7279 238.455 91.5011C238.455 91.2743 238.383 91.0834 238.238 90.9284Z" fill="black"/>
</svg>
