<svg width="84" height="25" viewBox="0 0 84 25" fill="none" xmlns="http://www.w3.org/2000/svg">
<path d="M9.22298 17.3411C8.75629 17.6454 8.04042 17.8811 7.23032 17.8967C6.43461 17.9172 5.74439 17.6768 5.28398 17.2521C4.66731 16.6794 4.35086 15.6911 4.35086 14.3283C4.35086 13 4.73929 10.7584 7.28136 10.585C7.62686 10.5602 8.55187 10.4899 9.22298 10.4725V17.3411ZM9.22298 5V7.74406H7.42689C2.10901 7.74406 1 11.6249 1 14.4204C1 16.4669 1.63918 18.2432 2.78641 19.4234C3.77581 20.4301 5.10024 20.9686 6.62307 20.9686C7.64256 20.9686 8.5024 20.7829 9.22298 20.4114L9.24209 20.6924H12.7513V5H9.22298ZM18.7547 12.3787C19.1125 11.1378 19.9914 10.3416 21.3994 10.3416C22.7097 10.3416 23.6043 11.2391 23.7113 12.3787H18.7547ZM27.1583 12.4365C27.024 10.9706 26.4725 9.72974 25.5747 8.86653C24.5696 7.89721 23.1601 7.4022 21.3994 7.4022C19.3682 7.4022 17.6967 8.13756 16.5592 9.52519C15.5462 10.7568 14.9884 12.4802 14.9884 14.3815C14.9884 17.5548 16.8259 20.9609 21.976 20.9609C23.9495 20.9609 25.8768 20.3631 26.9824 19.8246V16.6464C26.3673 16.9788 24.4832 17.9734 21.9105 17.9279C20.0234 17.8967 19.007 16.9054 18.6892 15.1588H27.1918L27.1965 15.0309C27.2159 13.8599 27.1918 12.8719 27.1583 12.4365ZM36.407 7.43365C35.2661 7.43365 34.0068 7.85196 33.5213 8.02838L33.5053 7.74406H29.9914V20.6922H33.5213V10.9939C34.2835 10.529 35.4642 10.3339 36.4199 10.5523C37.3658 10.7694 37.8307 11.3546 37.8307 13.0312V20.6924H41.3511V12.5224C41.3511 9.09921 39.7372 7.43365 36.407 7.43365ZM75.4733 7.74099V17.4393C74.7223 17.9092 73.5335 18.1013 72.5778 17.8872C71.6334 17.6704 71.1702 17.0882 71.1702 15.4022V7.74099H67.6434V15.9143C67.6434 19.336 69.2623 21 72.5875 21C73.73 21 74.994 20.5863 75.4733 20.4053L75.4942 20.6891H79V7.74099H75.4733ZM47.8578 5H44.3329V16.2375C44.3329 17.7827 44.6078 18.866 45.1941 19.631C45.8843 20.5362 47.0124 20.9719 48.6376 20.9719C49.9432 20.9719 51.2009 20.6924 51.9356 20.4661V17.3659C51.4801 17.4784 50.0837 17.7719 49.2752 17.7719C48.7622 17.7719 48.401 17.6671 48.179 17.4503C47.8578 17.1301 47.8578 16.5855 47.8578 16.0611V10.5914C49.2399 10.5914 50.9705 10.685 51.9358 10.7865V7.74406H47.8578V5ZM60.8666 12.6004C60.0389 12.4536 59.0595 12.2833 58.4936 11.979C58.2188 11.8323 58.0735 11.6246 58.0766 11.3953C58.0863 11.1703 58.2444 10.9535 58.4792 10.8412C58.9922 10.5633 59.924 10.429 61.3395 10.6819C62.6996 10.9207 64.208 11.4326 64.6744 11.6246V8.49962C63.0446 7.70979 61.5937 7.4022 59.9604 7.42572C58.4441 7.45385 57.1338 7.84096 56.1688 8.54181C55.1524 9.29276 54.5802 10.3618 54.5229 11.6402C54.419 13.7898 55.7997 15.0759 58.981 15.6801C59.6427 15.808 60.6064 16 61.0152 16.1672C61.4275 16.3263 61.6722 16.5917 61.6722 16.8929C61.6751 17.1818 61.466 17.4533 61.1351 17.5909C60.5391 17.8343 59.5691 17.7983 58.9522 17.7343C57.1304 17.5548 55.389 16.9259 54.7577 16.6528V19.8619C55.8348 20.3958 57.5332 21.0125 59.5484 20.9844C61.8557 20.9389 64.7192 20.2677 65.2354 17.2958C65.4335 16.192 65.2322 15.1946 64.6538 14.4078C63.9476 13.4574 62.8592 12.966 60.8666 12.6004Z" fill="black"/>
</svg>
