<svg width="100" height="25" viewBox="0 0 100 25" fill="none" xmlns="http://www.w3.org/2000/svg">
<path d="M66.0993 17.8193C65.9849 17.8193 65.8882 17.7832 65.8081 17.7111C65.7398 17.6268 65.7059 17.5245 65.7059 17.4041V5.41565C65.7059 5.29487 65.7398 5.19884 65.8081 5.12671C65.8846 5.0441 65.99 4.99797 66.0993 5.00007H66.9031C67.0172 5.00007 67.1083 5.04242 67.177 5.12671C67.2567 5.19884 67.2966 5.29529 67.2966 5.41565V17.4037C67.2985 17.5194 67.2551 17.6306 67.177 17.7111C67.1083 17.7832 67.0172 17.8193 66.9031 17.8193H66.0993ZM61.0395 18C59.8193 18 58.8612 17.6389 58.1655 16.9164C57.4812 16.1821 57.1162 15.1593 57.0708 13.8472L57.0534 13.125L57.0708 12.4029C57.1162 11.0907 57.4812 10.0738 58.1655 9.35127C58.8612 8.61698 59.8193 8.25005 61.0395 8.25005C61.8607 8.25005 62.5564 8.40647 63.1266 8.71973C63.6968 9.03256 64.1187 9.41795 64.3926 9.87504C64.6775 10.3326 64.8314 10.7901 64.8543 11.2472C64.8657 11.3675 64.8314 11.464 64.7517 11.5361C64.672 11.6086 64.5753 11.6443 64.4608 11.6443H63.6396C63.526 11.6443 63.4403 11.6204 63.3831 11.5722C63.3263 11.5244 63.2691 11.4279 63.2123 11.2836C63.0181 10.7058 62.7446 10.2965 62.3911 10.0558C62.0375 9.80291 61.5927 9.67627 61.0565 9.67627C60.3497 9.67627 59.785 9.91111 59.3631 10.3808C58.9524 10.8379 58.7302 11.542 58.6959 12.4931L58.6789 13.1431L58.6959 13.757C58.7302 14.7198 58.9524 15.4302 59.3631 15.8873C59.7736 16.3448 60.3382 16.5734 61.0565 16.5734C61.5927 16.5734 62.0375 16.4534 62.3911 16.2123C62.7446 15.9598 63.0181 15.5443 63.2123 14.9668C63.2691 14.8221 63.3263 14.7261 63.3831 14.6775C63.4403 14.6175 63.526 14.5877 63.6396 14.5877H64.4608C64.5701 14.5852 64.6755 14.6309 64.7517 14.714C64.8314 14.7861 64.8657 14.8825 64.8543 15.0029C64.8314 15.4482 64.6775 15.9053 64.3926 16.375C64.1187 16.8325 63.6968 17.2175 63.1266 17.5303C62.5678 17.8432 61.8721 18 61.0395 18ZM69.3695 16.8803C70.0652 17.6268 71.0403 18 72.2948 18C73.5493 18 74.5185 17.6268 75.2031 16.8803C75.8985 16.1343 76.2694 15.1413 76.3148 13.9012C76.3262 13.7692 76.3321 13.51 76.3321 13.125C76.3321 12.7396 76.3262 12.4809 76.3148 12.3488C76.2694 11.1209 75.8985 10.1338 75.2031 9.38775C74.5074 8.62915 73.5378 8.25005 72.2948 8.25005C71.0518 8.25005 70.0822 8.62915 69.3865 9.38775C68.6907 10.1338 68.3202 11.1209 68.2744 12.3488L68.2575 13.125L68.2744 13.9012C68.3202 15.1413 68.6852 16.1343 69.3695 16.8803ZM73.9881 15.8873C73.5777 16.3687 73.0134 16.6098 72.2948 16.6098C71.5762 16.6098 71.006 16.3691 70.5841 15.8873C70.1619 15.4059 69.9397 14.714 69.9168 13.8111L69.8999 13.125L69.9168 12.439C69.9397 11.5361 70.1619 10.8442 70.5841 10.3627C71.006 9.88133 71.5762 9.64062 72.2948 9.64062C73.0134 9.64062 73.5777 9.88133 73.9881 10.3627C74.4103 10.8442 74.6384 11.5361 74.6728 12.439C74.6842 12.5593 74.6897 12.7879 74.6897 13.125C74.6897 13.4622 74.6842 13.6907 74.6728 13.8111C74.6384 14.714 74.4103 15.4059 73.9881 15.8873ZM80.5956 18C79.512 18 78.6738 17.6331 78.0807 16.8988C77.4876 16.1523 77.1912 15.1656 77.1912 13.9377V8.84595C77.1912 8.7256 77.2252 8.62915 77.2938 8.55702C77.37 8.47399 77.4753 8.42828 77.5847 8.43037H78.4398C78.5538 8.43037 78.645 8.47273 78.7137 8.55702C78.7934 8.62915 78.8332 8.7256 78.8332 8.84595V13.8472C78.8332 15.6407 79.5747 16.5373 81.0573 16.5373C81.7759 16.5373 82.3461 16.3025 82.768 15.8332C83.1898 15.3518 83.4009 14.6896 83.4009 13.8472V8.84595C83.4009 8.7256 83.4353 8.62915 83.5035 8.55702C83.5797 8.47441 83.6851 8.4287 83.7944 8.43079H84.6499C84.764 8.43079 84.8551 8.47273 84.9238 8.55702C84.992 8.62915 85.0264 8.7256 85.0264 8.84595V17.4041C85.0264 17.5245 84.992 17.6268 84.9238 17.7111C84.8551 17.7832 84.764 17.8193 84.6499 17.8193H83.8457C83.7316 17.8193 83.6346 17.7832 83.5548 17.7111C83.4866 17.6268 83.4522 17.5245 83.4522 17.4041V16.6098C83.133 17.0669 82.7451 17.4158 82.2889 17.6566C81.8327 17.8855 81.2684 18 80.5956 18ZM86.9348 16.7721C87.5393 17.5907 88.4343 18 89.6205 18C90.8407 18 91.7819 17.5488 92.4432 16.6459V17.4041C92.4432 17.5245 92.4772 17.6268 92.5458 17.7111C92.6255 17.7832 92.7226 17.8197 92.8367 17.8197H93.6066C93.7206 17.8197 93.8118 17.7832 93.88 17.7111C93.9601 17.6268 94 17.5249 94 17.4041V5.41565C94 5.29487 93.9601 5.19884 93.88 5.12671C93.8118 5.04242 93.7206 5.00007 93.6066 5.00007H92.7854C92.6761 4.99839 92.5707 5.0441 92.4945 5.12671C92.4259 5.19884 92.3919 5.29529 92.3919 5.41565V9.56808C91.7191 8.68953 90.7953 8.25005 89.6205 8.25005C88.4343 8.25005 87.5393 8.66563 86.9348 9.49595C86.3302 10.3145 86.0109 11.3436 85.9766 12.5836L85.9596 13.125L85.9766 13.6668C86.0109 14.9186 86.3302 15.9536 86.9348 16.7721ZM91.742 15.725C91.3541 16.2668 90.7669 16.5377 89.9796 16.5377C88.383 16.5377 87.5847 15.4 87.5847 13.125L87.6017 12.6017C87.636 11.7349 87.8357 11.0366 88.2007 10.5074C88.5768 9.97778 89.1703 9.71275 89.9796 9.71275C90.744 9.71275 91.3312 9.97778 91.742 10.507C92.1524 11.0366 92.369 11.6569 92.3919 12.3668C92.4034 12.4994 92.4089 12.7342 92.4089 13.0709C92.4089 13.3959 92.4034 13.6249 92.3919 13.757C92.3576 14.5156 92.141 15.1715 91.742 15.725ZM6.41047 17.8193C6.30116 17.8214 6.19619 17.7756 6.12003 17.693C6.0415 17.6125 5.99809 17.5014 6.00006 17.3861V5.43368C6.00006 5.30116 6.03992 5.19884 6.12003 5.12671C6.19619 5.0441 6.30116 4.99839 6.41047 5.00007H7.9333C8.05879 5.00007 8.15547 5.04242 8.22413 5.12671C8.30385 5.19884 8.3437 5.30116 8.3437 5.43368V9.55004C9.02797 8.68366 9.95177 8.25005 11.1151 8.25005C12.1644 8.25005 13.0026 8.6174 13.63 9.35169C14.2571 10.0738 14.5708 11.0606 14.5708 12.3127V17.3861C14.5728 17.5014 14.5293 17.6125 14.4508 17.693C14.3826 17.7773 14.2859 17.8193 14.1604 17.8193H12.6206C12.5113 17.8214 12.4059 17.7756 12.3297 17.693C12.2512 17.6125 12.2082 17.5014 12.2102 17.3861V12.4209C12.2102 11.7105 12.0448 11.1633 11.7137 10.7779C11.3945 10.3808 10.9269 10.182 10.3109 10.182C9.70672 10.182 9.22765 10.3808 8.87407 10.7779C8.52049 11.175 8.3437 11.7227 8.3437 12.4209V17.3861C8.34568 17.5014 8.30227 17.6125 8.22413 17.693C8.15547 17.7773 8.05879 17.8193 7.9333 17.8193H6.41047ZM18.8461 18C17.7968 18 16.9701 17.6389 16.3655 16.9168C15.761 16.1825 15.4587 15.1895 15.4587 13.9377V8.86398C15.4587 8.74363 15.4985 8.64173 15.5786 8.55702C15.6548 8.47441 15.7598 8.4287 15.8691 8.43079H17.3745C17.5 8.43079 17.5971 8.47273 17.6654 8.55702C17.7455 8.62915 17.7853 8.73147 17.7853 8.86398V13.8291C17.7853 15.322 18.4069 16.068 19.6499 16.068C20.243 16.068 20.7107 15.8697 21.0528 15.4721C21.4064 15.075 21.5832 14.5273 21.5832 13.8291V8.86398C21.5832 8.74363 21.623 8.64173 21.7027 8.55702C21.7789 8.47441 21.8843 8.4287 21.9936 8.43079H23.499C23.6245 8.43079 23.7216 8.47273 23.7899 8.55702C23.8696 8.62915 23.9094 8.73147 23.9094 8.86398V17.3861C23.9094 17.5064 23.8696 17.6087 23.7899 17.693C23.7216 17.7773 23.6245 17.8193 23.499 17.8193H22.1135C22.0042 17.8214 21.8989 17.7756 21.8227 17.693C21.7442 17.6125 21.7008 17.5014 21.7027 17.3861V16.6459C21.0642 17.5488 20.112 18 18.8461 18ZM25.0917 17.693C25.1714 17.7773 25.2685 17.8193 25.3825 17.8193H26.8193C26.9338 17.8193 27.0305 17.7773 27.1102 17.693C27.1899 17.6087 27.2301 17.5064 27.2301 17.3861V12.3488C27.2301 11.6024 27.3841 11.0547 27.6919 10.7058C28.0111 10.3565 28.399 10.182 28.8552 10.182C29.3343 10.182 29.7277 10.3565 30.0355 10.7058C30.3551 11.0429 30.5146 11.5906 30.5146 12.3488V17.3861C30.5146 17.5064 30.5548 17.6087 30.6341 17.693C30.7142 17.7773 30.8109 17.8193 30.9254 17.8193H32.3282C32.4371 17.8214 32.5425 17.7756 32.6187 17.693C32.6988 17.6087 32.7386 17.5064 32.7386 17.3861V12.3488C32.7386 11.6024 32.8925 11.0547 33.2003 10.7058C33.52 10.3565 33.902 10.182 34.3467 10.182C34.8487 10.182 35.2476 10.3565 35.544 10.7058C35.8522 11.0429 36.0061 11.5906 36.0061 12.3488V17.3861C36.0061 17.5064 36.0459 17.6087 36.126 17.693C36.2054 17.7773 36.3024 17.8193 36.4165 17.8193H37.8193C37.9448 17.8193 38.0419 17.7773 38.1102 17.693C38.1899 17.6087 38.2297 17.5064 38.2297 17.3861V12.2041C38.2297 10.9163 37.9334 9.93543 37.3403 9.26153C36.7476 8.58721 35.9832 8.25005 35.0479 8.25005C34.4663 8.25005 33.9249 8.4006 33.4229 8.70169C32.9209 8.99063 32.533 9.37559 32.2596 9.85701C31.7576 8.78556 30.8741 8.25005 29.6077 8.25005C28.5474 8.25005 27.7203 8.65934 27.1275 9.47792V8.86398C27.1295 8.74866 27.0861 8.63753 27.0076 8.55702C26.9314 8.47441 26.8261 8.4287 26.7168 8.43079H25.3825C25.2732 8.4287 25.1679 8.47441 25.0917 8.55702C25.0132 8.63753 24.9698 8.74866 24.9717 8.86398V17.3861C24.9717 17.5064 25.0116 17.6087 25.0917 17.693ZM41.7943 18C41.2127 18 40.6764 17.8796 40.1863 17.6389C39.7072 17.3861 39.3248 17.0489 39.0399 16.6279C38.766 16.2064 38.6291 15.743 38.6291 15.2377C38.6291 14.4191 38.9428 13.757 39.5703 13.2513C40.1973 12.7459 41.0584 12.4029 42.1534 12.2222L44.4971 11.8615V11.482C44.4971 10.9524 44.3716 10.5552 44.1206 10.2906C43.8696 10.0256 43.4652 9.89349 42.906 9.89349C42.5299 9.89349 42.2217 9.97149 41.9822 10.1279C41.7541 10.2722 41.5718 10.4168 41.4348 10.5615C41.3453 10.6651 41.2541 10.7674 41.1614 10.8681C41.1156 11.0127 41.03 11.0849 40.9045 11.0849H39.5872C39.4866 11.0857 39.3891 11.0471 39.3138 10.9767C39.2451 10.9041 39.2108 10.8081 39.2108 10.6877C39.2222 10.3867 39.3591 10.0436 39.6216 9.65866C39.8954 9.27327 40.3114 8.9424 40.8705 8.66563C41.4293 8.38844 42.1136 8.25005 42.9229 8.25005C44.269 8.25005 45.2496 8.56918 45.8656 9.20701C46.4816 9.84485 46.7894 10.6815 46.7894 11.7168V17.3861C46.7914 17.5014 46.748 17.6125 46.6695 17.693C46.6012 17.7773 46.5041 17.8193 46.379 17.8193H44.9931C44.8838 17.8214 44.7784 17.7756 44.7023 17.693C44.6241 17.6125 44.5807 17.5014 44.5827 17.3861V16.6816C44.3317 17.0669 43.9722 17.3861 43.505 17.6389C43.0484 17.8796 42.4782 18 41.7943 18ZM42.3756 16.2848C43.0031 16.2848 43.5165 16.068 43.9154 15.6349C44.3148 15.2012 44.514 14.5697 44.514 13.739V13.3599L42.8034 13.6488C42.142 13.757 41.64 13.9314 41.2979 14.1721C40.9672 14.4129 40.8019 14.7081 40.8019 15.057C40.8019 15.4419 40.9558 15.743 41.264 15.9598C41.5718 16.1762 41.9423 16.2848 42.3756 16.2848ZM47.9062 17.693C47.9863 17.7773 48.083 17.8193 48.1974 17.8193H49.7025C49.828 17.8193 49.9251 17.7773 49.9933 17.693C50.073 17.6087 50.1133 17.5064 50.1133 17.3861V12.4209C50.1133 11.7227 50.2842 11.175 50.6263 10.7779C50.9799 10.3808 51.4589 10.182 52.0635 10.182C52.6791 10.182 53.1467 10.3808 53.4664 10.7779C53.7967 11.1633 53.9624 11.7105 53.9624 12.4209V17.3861C53.9624 17.5064 54.0023 17.6087 54.082 17.693C54.1617 17.7773 54.2588 17.8193 54.3728 17.8193H55.8783C56.0038 17.8193 56.1004 17.7773 56.1691 17.693C56.2488 17.6087 56.2891 17.5064 56.2891 17.3861V12.3127C56.2891 11.0606 55.9809 10.0738 55.3653 9.35169C54.7493 8.6174 53.9166 8.25005 52.8673 8.25005C51.6357 8.25005 50.6835 8.70169 50.0107 9.60456V8.86398C50.0127 8.74866 49.9693 8.63753 49.8907 8.55702C49.8146 8.47441 49.7092 8.4287 49.5999 8.43079H48.1974C48.0877 8.4287 47.9827 8.47441 47.9062 8.55702C47.8281 8.63753 47.7846 8.74866 47.7866 8.86398V17.3861C47.7866 17.5064 47.8265 17.6087 47.9062 17.693Z" fill="#212121"/>
</svg>
