<svg width="34" height="25" viewBox="0 0 34 25" fill="none" xmlns="http://www.w3.org/2000/svg">
<path d="M20.7984 18.3063C20.7984 20.1002 22.2814 21.5546 24.1104 21.5546C25.9392 21.5546 27.4222 20.1002 27.4222 18.3063C27.4222 16.5127 25.9392 15.0579 24.1104 15.0579C22.2814 15.0579 20.7984 16.5118 20.7984 18.3063ZM25.6943 18.3063C25.6943 19.1643 24.985 19.86 24.1104 19.86C23.2356 19.86 22.5263 19.1643 22.5263 18.3063C22.5263 17.4486 23.2356 16.7528 24.1104 16.7528C24.985 16.7528 25.6943 17.4477 25.6943 18.3063ZM8.33524 16.7525C8.71231 16.7525 9.07724 16.8851 9.36315 17.1262C9.36626 17.1281 9.36813 17.1281 9.36999 17.1311C9.57999 17.3416 10.0719 17.5818 10.5236 17.2836C10.9688 16.9899 11.0152 16.4516 10.7927 16.1359C10.1864 15.4762 9.31182 15.0588 8.33399 15.0588C6.50528 15.0588 5.02222 16.5136 5.02222 18.3072C5.02222 20.1011 6.50528 21.5556 8.33399 21.5556C9.31088 21.5556 10.1864 21.1382 10.7927 20.4785C11.0152 20.1628 10.9688 19.6244 10.5236 19.3308C10.0706 19.0326 9.57999 19.2727 9.36999 19.4833C9.36719 19.4863 9.36533 19.4863 9.36315 19.4882C9.07724 19.7296 8.71231 19.8622 8.33493 19.8619C7.46039 19.8619 6.75106 19.1661 6.75106 18.3081C6.75106 17.4477 7.46071 16.7525 8.33524 16.7525ZM13.7763 21.5534C14.2538 21.5534 14.6412 21.1736 14.6412 20.7052V18.2519C14.6704 17.4189 15.366 16.7516 16.2222 16.7516C17.0784 16.7516 17.774 17.4189 17.8033 18.2519V20.7052C17.8033 21.1736 18.1906 21.5534 18.6682 21.5534C19.1454 21.5534 19.5331 21.1733 19.5331 20.7052V18.2222H19.5312C19.4864 16.4668 18.022 15.057 16.2213 15.057C15.6691 15.0564 15.1252 15.1918 14.6402 15.4506V13.942C14.6402 13.4733 14.2529 13.0935 13.7753 13.0935C13.2981 13.0935 12.9104 13.4739 12.9104 13.9417V20.7034C12.9114 21.1742 13.2981 21.5534 13.7763 21.5534ZM5.88897 12.6046C6.36684 12.6046 6.75386 12.2248 6.75386 11.7564V10.2418C7.23919 10.5009 7.78271 10.6359 8.33493 10.6356C10.164 10.6356 11.647 9.18086 11.647 7.38725C11.647 5.59333 10.164 4.13889 8.33493 4.13889C6.50622 4.13889 5.02315 5.59333 5.02315 7.38725V11.7555C5.02315 12.2245 5.41079 12.6046 5.88897 12.6046ZM6.75106 7.38694C6.75106 6.52925 7.46039 5.8335 8.33493 5.8335C9.20977 5.8335 9.91911 6.52925 9.91911 7.38725C9.91911 8.24495 9.20977 8.94069 8.33493 8.94069C7.47906 8.94069 6.78311 8.27458 6.75386 7.44133V7.38725H6.75106V7.38694ZM16.2222 10.6356H23.7548V10.6307C23.7859 10.6316 23.8171 10.6356 23.8482 10.6356C23.883 10.6356 23.9169 10.6316 23.9512 10.6307L23.9471 10.6344C26.1989 10.6344 25.8947 13.0049 25.8947 13.0049C27.4826 10.6393 27.4213 7.53575 27.4213 7.53575L27.4135 7.54339C27.4166 7.49114 27.4213 7.44042 27.4213 7.38817C27.4213 5.59425 25.9385 4.13981 24.1095 4.13981C24.0784 4.13981 24.0473 4.14378 24.0162 4.14469V4.13981H16.2213C14.3923 4.13981 12.9095 5.59425 12.9095 7.38817C12.9114 9.18178 14.3932 10.6356 16.2222 10.6356Z" fill="#212121"/>
</svg>
