<svg width="65" height="25" viewBox="0 0 65 25" fill="none" xmlns="http://www.w3.org/2000/svg">
<path d="M11.5372 15.4002C10.423 15.2226 9.52679 14.8915 8.8486 14.4071C8.1704 13.9227 7.8313 13.2203 7.8313 12.2999C7.8313 11.4117 8.16232 10.7174 8.82438 10.2168C9.50257 9.70012 10.4311 9.44173 11.6098 9.44173C12.175 9.44173 12.7644 9.50634 13.378 9.63551C13.9916 9.74855 14.5002 9.90196 14.9039 10.0957V11.7912C14.5325 11.662 14.2015 11.5571 13.9109 11.4764C13.6202 11.3794 13.3376 11.3068 13.0631 11.2583C12.8047 11.2099 12.5383 11.1776 12.2638 11.1615C12.0055 11.1292 11.7229 11.113 11.4161 11.113C10.318 11.113 9.76901 11.5086 9.76901 12.2999C9.76901 12.6551 9.93856 12.9619 10.2777 13.2203C10.6329 13.4625 11.0931 13.632 11.6583 13.7289C12.2073 13.8096 12.7079 13.9308 13.16 14.0922C13.6283 14.2376 14.0239 14.4314 14.3469 14.6736C14.6698 14.9158 14.9201 15.2145 15.0977 15.5698C15.2753 15.9088 15.3641 16.3206 15.3641 16.805C15.3641 17.6931 14.9927 18.4036 14.2499 18.9365C13.5233 19.4694 12.5706 19.7358 11.3919 19.7358C10.8428 19.7358 10.2454 19.6712 9.59946 19.542C8.9697 19.3967 8.45298 19.2272 8.04929 19.0334V17.3379C8.75979 17.6124 9.37339 17.8062 9.89011 17.9192C10.4068 18.0161 10.972 18.0645 11.5856 18.0645C12.1508 18.0645 12.5868 17.9596 12.8936 17.7497C13.2165 17.5397 13.378 17.2249 13.378 16.805C13.378 16.3852 13.2084 16.0703 12.8693 15.8604C12.5464 15.6505 12.1023 15.4971 11.5372 15.4002ZM24.3238 19.0576C23.8232 19.2514 23.3307 19.4048 22.8462 19.5178C22.3618 19.6309 21.7644 19.6874 21.0539 19.6874C20.3434 19.6874 19.7056 19.5582 19.1404 19.2998C18.5914 19.0415 18.1231 18.6781 17.7355 18.2099C17.348 17.7416 17.0493 17.1764 16.8394 16.5144C16.6295 15.8523 16.5245 15.1176 16.5245 14.3102C16.5245 12.7278 16.9443 11.5329 17.784 10.7255C18.6237 9.90196 19.754 9.49021 21.175 9.49021C21.7563 9.49021 22.3295 9.54671 22.8947 9.65975C23.476 9.75662 23.9524 9.88579 24.3238 10.0473V11.767C23.7263 11.5248 23.1692 11.3633 22.6525 11.2826C22.1519 11.2018 21.7078 11.1615 21.3203 11.1615C20.4322 11.1615 19.7379 11.4198 19.2373 11.9365C18.7367 12.4533 18.4864 13.2445 18.4864 14.3102C18.4864 15.6182 18.7367 16.5628 19.2373 17.1441C19.7379 17.7254 20.4322 18.0161 21.3203 18.0161C21.7724 18.0161 22.2488 17.9757 22.7494 17.895C23.2499 17.8142 23.7747 17.6608 24.3238 17.4348V19.0576ZM31.8751 14.9158H29.3077C28.0159 14.9158 27.3699 15.4244 27.3699 16.4417C27.3699 16.91 27.5314 17.3056 27.8544 17.6286C28.1773 17.9354 28.6376 18.0888 29.235 18.0888C29.6549 18.0888 30.0827 18.008 30.5187 17.8465C30.9547 17.6689 31.4068 17.4186 31.8751 17.0957V14.9158ZM31.8751 19.5905V18.5248C31.5037 18.8638 31.0678 19.1464 30.5672 19.3725C30.0827 19.5824 29.5902 19.6874 29.0897 19.6874C28.5891 19.6874 28.1128 19.6147 27.6606 19.4694C27.2246 19.3079 26.8371 19.0899 26.498 18.8154C26.175 18.5248 25.9167 18.1776 25.7229 17.7739C25.5291 17.3702 25.4323 16.9261 25.4323 16.4417C25.4323 15.4406 25.7875 14.6816 26.498 14.1649C27.2085 13.6482 28.145 13.3898 29.3077 13.3898H31.8751V13.0023C31.8751 12.421 31.7137 11.9608 31.3907 11.6217C31.0678 11.2664 30.5591 11.0888 29.8648 11.0888C29.2996 11.0888 28.7183 11.1453 28.1208 11.2583C27.5234 11.3714 26.9421 11.5409 26.3769 11.767V10.0957C27.5557 9.69205 28.7829 9.49021 30.0585 9.49021C30.5753 9.49021 31.0597 9.57094 31.5118 9.73242C31.9639 9.87772 32.3596 10.0957 32.6987 10.3864C33.0377 10.677 33.3042 11.0323 33.498 11.4521C33.7079 11.8719 33.8128 12.3483 33.8128 12.8812V19.5905H31.8751ZM44.0121 19.5905H42.0744V13.3172C42.0744 12.4936 41.9048 11.9285 41.5657 11.6217C41.2267 11.3149 40.6453 11.1615 39.8218 11.1615C39.4342 11.1615 39.0548 11.2422 38.6834 11.4037C38.312 11.549 37.9729 11.7508 37.6661 12.0092V19.5905H35.7284V9.58708H37.6661V10.3864C37.9891 10.1119 38.3685 9.90196 38.8045 9.75662C39.2405 9.59514 39.6765 9.5144 40.1125 9.5144C41.3881 9.5144 42.357 9.82122 43.019 10.4348C43.6811 11.0323 44.0121 11.993 44.0121 13.3172V19.5905ZM51.5588 17.9677C52.9635 17.9677 53.981 17.5559 54.6105 16.7323C55.2566 15.9088 55.5796 14.6574 55.5796 12.9781C55.5796 11.9446 55.4989 11.0888 55.3372 10.4106C55.1759 9.73242 54.9335 9.19145 54.6105 8.78776C54.2879 8.38407 53.868 8.10149 53.351 7.94001C52.8505 7.7624 52.2533 7.6736 51.5588 7.6736C50.8644 7.6736 50.259 7.7624 49.742 7.94001C49.2415 8.10149 48.8298 8.38407 48.5068 8.78776C48.1837 9.19145 47.9417 9.73242 47.78 10.4106C47.6187 11.0888 47.538 11.9446 47.538 12.9781C47.538 14.6574 47.853 15.9088 48.4826 16.7323C49.1286 17.5559 50.1538 17.9677 51.5588 17.9677ZM51.5588 19.6874C49.5081 19.6874 47.974 19.1061 46.9565 17.9434C45.9394 16.7647 45.4309 15.1095 45.4309 12.9781C45.4309 10.4913 45.9394 8.69896 46.9565 7.60093C47.974 6.5029 49.5081 5.95387 51.5588 5.95387C53.6095 5.95387 55.1436 6.5029 56.1607 7.60093C57.1782 8.69896 57.6868 10.4913 57.6868 12.9781C57.6868 15.1095 57.1782 16.7647 56.1607 17.9434C55.1436 19.1061 53.6095 19.6874 51.5588 19.6874Z" fill="black"/>
<path d="M48.2202 23.0676C48.7807 23.0676 49.235 22.6132 49.235 22.0528C49.235 21.4923 48.7807 21.0379 48.2202 21.0379C47.6597 21.0379 47.2053 21.4923 47.2053 22.0528C47.2053 22.6132 47.6597 23.0676 48.2202 23.0676Z" fill="black"/>
<path d="M51.416 23.2834C52.0957 23.2834 52.6467 22.7324 52.6467 22.0526C52.6467 21.3729 52.0957 20.8219 51.416 20.8219C50.7362 20.8219 50.1852 21.3729 50.1852 22.0526C50.1852 22.7324 50.7362 23.2834 51.416 23.2834Z" fill="black"/>
<path d="M55.1082 23.5858C55.9429 23.5858 56.6196 22.8995 56.6196 22.0528C56.6196 21.2061 55.9429 20.5197 55.1082 20.5197C54.2734 20.5197 53.5967 21.2061 53.5967 22.0528C53.5967 22.8995 54.2734 23.5858 55.1082 23.5858Z" fill="black"/>
</svg>
