<svg width="269" height="111" viewBox="0 0 269 111" fill="none" xmlns="http://www.w3.org/2000/svg">
<path fill-rule="evenodd" clip-rule="evenodd" d="M63.9276 91.7312C65.1031 91.0954 66.6312 91.5134 67.3404 92.6612C68.0476 93.8111 67.6699 95.2592 66.4944 95.8949C53.7759 102.745 32.0349 101.628 19.4898 94.7549C18.2777 94.0956 17.819 92.6397 18.4627 91.5055C19.1063 90.3714 20.6113 89.9848 21.8215 90.6441C32.8442 96.6798 52.7507 97.7531 63.9276 91.7312" fill="black"/>
<path fill-rule="evenodd" clip-rule="evenodd" d="M43.9787 50.6139C43.9787 46.8171 38.6562 46.5561 38.4384 50.5845C38.4789 56.885 38.2323 63.7624 41.8936 67.2394C49.1451 74.1286 61.9234 71.0813 69.7723 61.2724C76.4495 52.9312 79.0106 39.9358 72.2158 26.8697C61.2605 5.80184 35.4168 3.64345 19.4955 20.1375C1.96902 38.2915 7.02175 69.2859 30.9808 78.5258C40.8646 82.3363 51.8873 82.093 61.75 78.3296C89.5535 67.724 92.9624 32.7994 73.8152 12.587C57.2831 -4.86649 29.2715 -3.72843 12.8607 13.2699C-2.4709 29.1517 -4.53863 56.0217 9.05864 73.7538C24.9568 94.4881 57.3891 95.0257 77.5499 80.7705C78.5905 79.915 78.762 78.3472 77.9372 77.272C77.1105 76.1947 75.5978 76.0162 74.5591 76.8717C56.3003 89.8671 27.277 89.5022 12.8222 70.6555C0.743417 54.9032 2.66854 30.8843 16.2658 16.7998C30.7881 1.7578 55.7279 0.598159 70.3909 16.0758C87.1138 33.7294 84.5316 64.3295 60.0946 73.6518C51.2842 77.011 41.489 77.272 32.6554 73.8656C12.0398 65.9169 7.86965 39.2372 22.9026 23.6654C36.5422 9.53585 58.5646 11.1193 67.9821 29.2282C74.1139 41.0189 71.5625 51.6127 66.0068 58.1526C58.2081 67.3296 45.3045 68.9681 44.0731 58.5627C43.7533 55.8509 43.9344 53.3119 43.9787 50.6139ZM37.6252 40.8619C37.6252 36.188 44.7939 36.2018 44.7939 40.8619C44.7939 45.524 37.6252 45.5378 37.6252 40.8619V40.8619Z" fill="black"/>
<path fill-rule="evenodd" clip-rule="evenodd" d="M58.2736 102.867C59.5512 102.435 60.9926 103.09 61.4917 104.328C61.9889 105.568 61.3588 106.924 60.0811 107.356C49.1432 111.057 36.5769 111.084 25.8066 106.754C24.5232 106.238 23.8796 104.839 24.371 103.628C24.8604 102.417 26.2999 101.854 27.5853 102.368C37.2205 106.243 48.4919 106.177 58.2736 102.867" fill="black"/>
<path fill-rule="evenodd" clip-rule="evenodd" d="M108.545 61.9984H114.485V38.8545H108.545V61.9984ZM107.705 30.9946C107.705 30.0619 108.06 29.251 108.769 28.5598C109.478 27.8686 110.377 27.5231 111.465 27.5231C112.555 27.5231 113.471 27.8529 114.213 28.5127C114.954 29.1705 115.327 29.9991 115.327 30.9946C115.327 31.992 114.954 32.8187 114.213 33.4784C113.471 34.1381 112.555 34.4661 111.465 34.4661C110.377 34.4661 109.478 34.1205 108.769 33.4293C108.06 32.7401 107.705 31.9272 107.705 30.9946ZM120.324 50.3312C120.324 48.4993 120.662 46.8342 121.341 45.34C122.017 43.8458 122.933 42.5675 124.086 41.5072C125.242 40.445 126.61 39.6262 128.194 39.0469C129.778 38.4697 131.462 38.1791 133.242 38.1791C135.025 38.1791 136.707 38.4697 138.291 39.0469C139.875 39.6262 141.243 40.445 142.399 41.5072C143.554 42.5675 144.47 43.8458 145.146 45.34C145.823 46.8342 146.161 48.4993 146.161 50.3312C146.161 52.1632 145.823 53.8342 145.146 55.3461C144.47 56.856 143.554 58.15 142.399 59.2279C141.243 60.3039 139.875 61.1482 138.291 61.7589C136.707 62.3695 135.025 62.6739 133.242 62.6739C131.462 62.6739 129.778 62.3695 128.194 61.7589C126.61 61.1482 125.242 60.3039 124.086 59.2279C122.933 58.15 122.017 56.856 121.341 55.3461C120.662 53.8342 120.324 52.1632 120.324 50.3312ZM126.364 50.3312C126.364 51.2305 126.504 52.1298 126.784 53.0311C127.065 53.9304 127.485 54.7354 128.047 55.4423C128.608 56.1491 129.317 56.7284 130.173 57.178C131.032 57.6277 132.054 57.8535 133.242 57.8535C134.431 57.8535 135.453 57.6277 136.312 57.178C137.168 56.7284 137.879 56.1491 138.44 55.4423C139 54.7354 139.422 53.9304 139.703 53.0311C139.983 52.1298 140.123 51.2305 140.123 50.3312C140.123 49.43 139.983 48.5386 139.703 47.655C139.422 46.7714 139 45.9742 138.44 45.2673C137.879 44.5605 137.168 43.9891 136.312 43.5552C135.453 43.1232 134.431 42.9052 133.242 42.9052C132.054 42.9052 131.032 43.1232 130.173 43.5552C129.317 43.9891 128.608 44.5605 128.047 45.2673C127.485 45.9742 127.065 46.7714 126.784 47.655C126.504 48.5386 126.364 49.43 126.364 50.3312ZM168.631 48.1125C168.631 47.3742 168.522 46.6654 168.309 45.9919C168.094 45.3164 167.756 44.7215 167.293 44.207C166.832 43.6926 166.246 43.2822 165.537 42.9779C164.828 42.6716 163.994 42.5204 163.037 42.5204C161.257 42.5204 159.747 43.0407 158.509 44.0873C157.272 45.1319 156.587 46.4729 156.454 48.1125H168.631ZM174.568 50.7161V51.4878C174.568 51.745 174.552 52.0022 174.519 52.2594H156.454C156.52 53.0959 156.743 53.8597 157.122 54.5508C157.503 55.24 158.005 55.835 158.632 56.3337C159.259 56.8324 159.968 57.2271 160.761 57.5157C161.552 57.8044 162.377 57.9497 163.236 57.9497C164.719 57.9497 165.973 57.6846 166.998 57.1545C168.02 56.6243 168.86 55.8919 169.52 54.9592L173.48 58.0459C171.138 61.1325 167.739 62.6739 163.285 62.6739C161.437 62.6739 159.738 62.3931 158.187 61.8315C156.636 61.268 155.292 60.4728 154.153 59.4439C153.014 58.415 152.125 57.1545 151.482 55.6583C150.838 54.164 150.516 52.4695 150.516 50.5708C150.516 48.7074 150.838 47.0109 151.482 45.4853C152.125 43.9577 153.006 42.6559 154.129 41.5799C155.251 40.5019 156.579 39.6674 158.112 39.0725C159.646 38.4775 161.306 38.1791 163.086 38.1791C164.736 38.1791 166.262 38.4441 167.666 38.9743C169.067 39.5064 170.28 40.2938 171.302 41.3384C172.325 42.3829 173.126 43.6848 173.704 45.2438C174.281 46.8028 174.568 48.6269 174.568 50.7161ZM208.67 38.1791C210.221 38.1791 211.548 38.4441 212.655 38.9743C213.759 39.5064 214.667 40.2054 215.376 41.0733C216.084 41.9412 216.605 42.9367 216.935 44.0617C217.265 45.1868 217.431 46.3453 217.431 47.5332V62.0004H211.491V49.1728C211.491 48.4993 211.442 47.7924 211.343 47.0522C211.243 46.3119 211.028 45.6463 210.698 45.0514C210.368 44.4564 209.915 43.9655 209.338 43.5807C208.76 43.1939 207.993 43.0014 207.037 43.0014C206.113 43.0014 205.32 43.1939 204.66 43.5807C204 43.9655 203.457 44.4643 203.027 45.0749C202.599 45.6856 202.285 46.3689 202.087 47.1248C201.89 47.8788 201.789 48.6269 201.789 49.3672V62.0004H195.852V48.0163C195.852 46.5692 195.495 45.3714 194.786 44.425C194.078 43.4766 192.965 43.0014 191.447 43.0014C190.556 43.0014 189.779 43.186 189.119 43.5552C188.46 43.9263 187.925 44.3995 187.511 44.9787C187.099 45.556 186.786 46.2236 186.57 46.9795C186.357 47.7355 186.249 48.4993 186.249 49.269V62.0004H180.309V38.8545H185.952V42.5675H186.052C186.314 41.9883 186.671 41.4424 187.115 40.928C187.56 40.4135 188.089 39.9482 188.699 39.53C189.31 39.1117 190.011 38.7819 190.801 38.5403C191.594 38.3008 192.469 38.1791 193.426 38.1791C195.274 38.1791 196.809 38.5816 198.028 39.3847C199.249 40.1877 200.189 41.25 200.849 42.5675C201.642 41.1538 202.697 40.068 204.017 39.314C205.336 38.558 206.887 38.1791 208.67 38.1791ZM239.108 59.0591H238.96C238.366 60.0879 237.409 60.9303 236.088 61.59C234.768 62.2498 233.268 62.5777 231.584 62.5777C230.627 62.5777 229.63 62.4579 228.591 62.2164C227.55 61.9749 226.595 61.5743 225.72 61.0108C224.845 60.4492 224.12 59.709 223.542 58.794C222.965 57.877 222.676 56.7441 222.676 55.3932C222.676 53.6574 223.18 52.2751 224.186 51.2462C225.192 50.2174 226.487 49.43 228.07 48.8841C229.654 48.3383 231.412 47.977 233.342 47.8003C235.272 47.6216 237.161 47.5332 239.009 47.5332V46.956C239.009 45.5089 238.472 44.4407 237.399 43.7495C236.327 43.0584 235.049 42.7128 233.563 42.7128C232.309 42.7128 231.107 42.97 229.951 43.4845C228.796 43.9969 227.839 44.6253 227.081 45.3636L224.012 41.8449C225.366 40.6236 226.925 39.7067 228.689 39.096C230.455 38.4854 232.244 38.1791 234.059 38.1791C236.172 38.1791 237.911 38.4697 239.282 39.0469C240.65 39.6262 241.73 40.3821 242.523 41.3148C243.314 42.2455 243.867 43.2901 244.181 44.4486C244.494 45.6051 244.65 46.7616 244.65 47.92V62.0004H239.108V59.0591ZM239.009 51.4406H237.671C236.717 51.4406 235.709 51.4799 234.653 51.5604C233.598 51.6409 232.625 51.8176 231.734 52.0906C230.842 52.3635 230.101 52.7503 229.507 53.249C228.912 53.7458 228.615 54.4291 228.615 55.297C228.615 55.8428 228.738 56.3023 228.986 56.6714C229.234 57.0406 229.556 57.339 229.951 57.5629C230.347 57.7887 230.793 57.9497 231.287 58.0459C231.783 58.1421 232.277 58.1912 232.773 58.1912C234.817 58.1912 236.368 57.6591 237.426 56.5988C238.481 55.5385 239.009 54.0914 239.009 52.2594V51.4406ZM264.596 45.0278C264.069 44.3523 263.342 43.7653 262.42 43.2665C261.496 42.7678 260.488 42.5204 259.4 42.5204C258.443 42.5204 257.568 42.7128 256.777 43.0977C255.984 43.4845 255.589 44.1265 255.589 45.0278C255.589 45.9271 256.025 46.5613 256.9 46.9324C257.775 47.3015 259.053 47.6785 260.736 48.0634C261.627 48.2578 262.526 48.515 263.434 48.837C264.339 49.1571 265.165 49.5831 265.909 50.1133C266.651 50.6434 267.253 51.3032 267.714 52.0906C268.177 52.8779 268.406 53.8342 268.406 54.9592C268.406 56.3749 268.134 57.5727 267.591 58.5525C267.046 59.5323 266.321 60.3275 265.413 60.9381C264.505 61.5508 263.45 61.9926 262.246 62.2655C261.041 62.5384 259.795 62.6739 258.508 62.6739C256.66 62.6739 254.863 62.346 253.114 61.6862C251.366 61.0265 249.913 60.0879 248.758 58.8647L252.669 55.297C253.329 56.1334 254.185 56.8246 255.242 57.3704C256.298 57.9163 257.47 58.1912 258.756 58.1912C259.185 58.1912 259.623 58.1421 260.068 58.0459C260.512 57.9497 260.926 57.7965 261.305 57.5884C261.684 57.3783 261.989 57.0975 262.221 56.7441C262.452 56.3906 262.567 55.9567 262.567 55.4423C262.567 54.4782 262.112 53.787 261.207 53.3688C260.299 52.9506 258.937 52.5323 257.123 52.1161C256.232 51.9217 255.365 51.6723 254.525 51.368C253.683 51.0617 252.931 50.6611 252.272 50.1624C251.612 49.6636 251.085 49.0451 250.688 48.3049C250.292 47.5666 250.096 46.6497 250.096 45.5579C250.096 44.2718 250.366 43.1625 250.911 42.2298C251.456 41.2971 252.173 40.5333 253.065 39.9403C253.956 39.3454 254.962 38.9036 256.083 38.613C257.205 38.3244 258.361 38.1791 259.547 38.1791C261.264 38.1791 262.938 38.4697 264.571 39.0469C266.204 39.6262 267.501 40.5097 268.456 41.6996L264.596 45.0278V45.0278Z" fill="black"/>
<path fill-rule="evenodd" clip-rule="evenodd" d="M112.819 78.6766C112.648 78.3065 112.389 78.0022 112.043 77.765C111.696 77.5293 111.301 77.4114 110.858 77.4114C110.653 77.4114 110.449 77.4361 110.244 77.4882C110.04 77.5389 109.857 77.6225 109.698 77.7376C109.539 77.8528 109.411 77.9994 109.315 78.179C109.217 78.3572 109.17 78.5683 109.17 78.8123C109.17 79.2345 109.323 79.5566 109.63 79.7814C109.937 80.0048 110.42 80.194 111.08 80.3475C112.022 80.5641 112.719 80.8807 113.168 81.2974C113.617 81.7128 113.842 82.272 113.842 82.9752C113.842 83.4879 113.753 83.9196 113.578 84.2719C113.401 84.6228 113.171 84.9107 112.887 85.1355C112.603 85.3589 112.282 85.5193 111.924 85.6139C111.566 85.7112 111.204 85.7592 110.841 85.7592C110.238 85.7592 109.652 85.618 109.085 85.337C108.516 85.0546 108.049 84.6132 107.686 84.0128L108.607 83.2452C108.812 83.6414 109.113 83.9745 109.511 84.2431C109.908 84.5118 110.346 84.6461 110.824 84.6461C111.074 84.6461 111.312 84.6201 111.54 84.5694C111.767 84.5173 111.966 84.4282 112.137 84.3007C112.307 84.1718 112.444 84.0087 112.546 83.8113C112.648 83.6126 112.699 83.3659 112.699 83.0711C112.699 82.5982 112.497 82.2432 112.094 82.0075C111.69 81.7703 111.108 81.5496 110.346 81.344C110.108 81.281 109.854 81.2015 109.588 81.1055C109.32 81.0096 109.072 80.8684 108.846 80.6833C108.618 80.4969 108.431 80.2639 108.283 79.9829C108.135 79.7005 108.062 79.3496 108.062 78.9261C108.062 78.4669 108.141 78.0735 108.3 77.7472C108.459 77.4196 108.673 77.1523 108.94 76.9412C109.206 76.7288 109.511 76.5725 109.852 76.4711C110.193 76.3683 110.545 76.3176 110.909 76.3176C111.466 76.3176 112.005 76.4574 112.529 76.7397C113.051 77.0207 113.444 77.4169 113.705 77.9295L112.819 78.6766ZM116.161 85.5289H117.32V76.5478H116.161V85.5289ZM117.559 73.0936C117.559 73.3623 117.474 73.583 117.303 73.7557C117.133 73.9284 116.945 74.0147 116.741 74.0147C116.536 74.0147 116.348 73.9284 116.178 73.7557C116.007 73.583 115.922 73.3623 115.922 73.0936C115.922 72.8249 116.007 72.6042 116.178 72.4315C116.348 72.2588 116.536 72.1725 116.741 72.1725C116.945 72.1725 117.133 72.2588 117.303 72.4315C117.474 72.6042 117.559 72.8249 117.559 73.0936ZM121.549 78.0831C121.776 77.5581 122.125 77.1331 122.598 76.8069C123.069 76.4807 123.595 76.3176 124.175 76.3176C124.39 76.3176 124.615 76.3422 124.848 76.3943C125.081 76.445 125.309 76.5437 125.53 76.6918C125.752 76.8384 125.957 77.0331 126.144 77.2771C126.332 77.5197 126.494 77.8336 126.63 78.2174C126.903 77.6033 127.275 77.1331 127.747 76.8069C128.218 76.4807 128.779 76.3176 129.427 76.3176C130.439 76.3176 131.196 76.6561 131.703 77.3346C132.208 78.0118 132.462 78.9082 132.462 80.0213V85.5289H131.302V80.5572C131.302 79.6114 131.145 78.8507 130.833 78.275C130.52 77.6993 129.989 77.4114 129.239 77.4114C128.819 77.4114 128.463 77.5074 128.173 77.6993C127.883 77.8898 127.65 78.1434 127.474 78.4559C127.298 78.7698 127.17 79.1248 127.091 79.5223C127.011 79.9185 126.971 80.3283 126.971 80.7491V85.5289H125.812V80.2899C125.812 79.854 125.783 79.4579 125.727 79.1001C125.669 78.741 125.569 78.4381 125.428 78.1886C125.286 77.9391 125.09 77.7472 124.84 77.6129C124.589 77.4786 124.271 77.4114 123.885 77.4114C123.612 77.4114 123.336 77.4813 123.058 77.6225C122.779 77.7623 122.529 77.9775 122.308 78.2654C122.086 78.5518 121.907 78.9178 121.771 79.3592C121.634 79.8006 121.566 80.3215 121.566 80.9232V85.5289H120.407V78.5244C120.407 78.2804 120.4 77.9679 120.39 77.5841C120.377 77.2003 120.362 76.8535 120.338 76.5478H121.447C121.469 76.7905 121.486 77.0591 121.498 77.3538C121.509 77.6472 121.515 77.8898 121.515 78.0831H121.549ZM136.622 90.1345H135.463V76.5478H136.622V78.1022H136.673C137.002 77.5128 137.443 77.0687 137.995 76.7685C138.545 76.467 139.106 76.3176 139.674 76.3176C140.299 76.3176 140.864 76.4382 141.371 76.6822C141.876 76.9248 142.309 77.2579 142.667 77.6801C143.025 78.1022 143.303 78.6012 143.502 79.1769C143.701 79.7526 143.801 80.3722 143.801 81.0384C143.801 81.7032 143.701 82.3241 143.502 82.8998C143.303 83.4755 143.025 83.9745 142.667 84.3966C142.309 84.8188 141.876 85.1505 141.371 85.3945C140.864 85.6372 140.299 85.7592 139.674 85.7592C139.106 85.7592 138.545 85.6084 137.995 85.3082C137.443 85.0066 137.002 84.5748 136.673 84.0128H136.622V90.1345ZM142.573 81.0384C142.573 80.5394 142.505 80.0692 142.368 79.6279C142.232 79.1865 142.036 78.8027 141.78 78.4765C141.524 78.1502 141.209 77.8898 140.834 77.6993C140.459 77.5074 140.032 77.4114 139.555 77.4114C139.112 77.4114 138.702 77.5032 138.327 77.6897C137.952 77.8747 137.628 78.131 137.355 78.4559C137.083 78.7835 136.869 79.1673 136.716 79.6087C136.562 80.0501 136.486 80.5257 136.486 81.0384C136.486 81.5496 136.562 82.0267 136.716 82.468C136.869 82.9094 137.083 83.2891 137.355 83.6098C137.628 83.9292 137.952 84.1814 138.327 84.3679C138.702 84.5529 139.112 84.6461 139.555 84.6461C140.032 84.6461 140.459 84.5529 140.834 84.3679C141.209 84.1814 141.524 83.9265 141.78 83.6003C142.036 83.274 142.232 82.8902 142.368 82.4488C142.505 82.0075 142.573 81.5373 142.573 81.0384ZM146.324 85.5289H147.484V71.0211H146.324V85.5289ZM150.604 85.5289H151.764V76.5478H150.604V85.5289ZM152.002 73.0936C152.002 73.3623 151.917 73.583 151.746 73.7557C151.576 73.9284 151.388 74.0147 151.184 74.0147C150.979 74.0147 150.792 73.9284 150.621 73.7557C150.451 73.583 150.365 73.3623 150.365 73.0936C150.365 72.8249 150.451 72.6042 150.621 72.4315C150.792 72.2588 150.979 72.1725 151.184 72.1725C151.388 72.1725 151.576 72.2588 151.746 72.4315C151.917 72.6042 152.002 72.8249 152.002 73.0936ZM158.226 77.6403H156.35V85.5289H155.191V77.6403H153.52V76.5478H155.191V74.0901C155.191 73.0676 155.412 72.2616 155.856 71.6722C156.299 71.0841 156.981 70.7908 157.902 70.7908C158.049 70.7908 158.209 70.8004 158.379 70.8196C158.55 70.8387 158.708 70.873 158.857 70.9251L158.652 72.0765C158.527 72.0381 158.401 72.0052 158.277 71.9806C158.152 71.9545 158.009 71.9422 157.851 71.9422C157.544 71.9422 157.291 71.9998 157.092 72.1135C156.893 72.23 156.739 72.3932 156.632 72.6042C156.523 72.8153 156.449 73.0607 156.41 73.3431C156.37 73.6241 156.35 73.9243 156.35 74.245V76.5478H158.226V77.6403ZM162.625 84.128H162.659L165.132 76.5478H166.393L162.42 87.8509C162.182 88.5417 161.877 89.0941 161.508 89.5095C161.138 89.9262 160.607 90.1345 159.914 90.1345C159.561 90.1345 159.215 90.0961 158.874 90.0194L158.993 88.8296C159.266 88.931 159.55 88.9831 159.846 88.9831C160.243 88.9831 160.556 88.8447 160.784 88.5705C161.01 88.295 161.21 87.9016 161.38 87.3903L162.028 85.5097L158.618 76.5478H159.914L162.625 84.128ZM168.218 85.5289H169.377V76.5478H168.218V85.5289ZM169.616 73.0936C169.616 73.3623 169.531 73.583 169.36 73.7557C169.19 73.9284 169.002 74.0147 168.798 74.0147C168.593 74.0147 168.405 73.9284 168.235 73.7557C168.064 73.583 167.979 73.3623 167.979 73.0936C167.979 72.8249 168.064 72.6042 168.235 72.4315C168.405 72.2588 168.593 72.1725 168.798 72.1725C169.002 72.1725 169.19 72.2588 169.36 72.4315C169.531 72.6042 169.616 72.8249 169.616 73.0936ZM173.504 76.5478C173.526 76.7905 173.544 77.0591 173.555 77.3538C173.566 77.6472 173.572 77.8898 173.572 78.0831H173.606C173.833 77.5581 174.203 77.1331 174.714 76.8069C175.226 76.4807 175.765 76.3176 176.334 76.3176C177.346 76.3176 178.104 76.6561 178.61 77.3346C179.116 78.0118 179.369 78.9082 179.369 80.0213V85.5289H178.21V80.5572C178.21 80.0843 178.176 79.6567 178.107 79.2715C178.039 78.889 177.922 78.5587 177.758 78.2846C177.592 78.009 177.371 77.7952 177.093 77.6403C176.814 77.4882 176.464 77.4114 176.044 77.4114C175.737 77.4114 175.439 77.4813 175.149 77.6225C174.859 77.7623 174.6 77.9775 174.373 78.2654C174.146 78.5518 173.964 78.9178 173.828 79.3592C173.691 79.8006 173.623 80.3215 173.623 80.9232V85.5289H172.464V78.5244C172.464 78.2804 172.457 77.9679 172.447 77.5841C172.434 77.2003 172.417 76.8535 172.395 76.5478H173.504ZM182.797 87.3328C183.114 87.7933 183.549 88.1826 184.101 88.5034C184.653 88.8227 185.235 88.9831 185.849 88.9831C186.416 88.9831 186.9 88.8899 187.298 88.7049C187.695 88.5184 188.017 88.2662 188.261 87.9468C188.506 87.6261 188.684 87.2519 188.799 86.8242C188.912 86.3952 188.969 85.9373 188.969 85.4521V83.762H188.935C188.628 84.3254 188.193 84.7613 187.631 85.0683C187.068 85.3753 186.497 85.5289 185.917 85.5289C185.292 85.5289 184.726 85.4137 184.22 85.1834C183.714 84.9532 183.282 84.6365 182.924 84.2322C182.566 83.8305 182.287 83.3467 182.089 82.7847C181.889 82.2213 181.791 81.6141 181.791 80.9616C181.791 80.3215 181.889 79.7197 182.089 79.1577C182.287 78.5943 182.566 78.1022 182.924 77.6801C183.282 77.2579 183.714 76.9248 184.22 76.6822C184.726 76.4382 185.292 76.3176 185.917 76.3176C186.497 76.3176 187.064 76.4711 187.622 76.7781C188.179 77.0852 188.616 77.5265 188.935 78.1022H188.969V76.5478H190.129V85.4521C190.129 85.9373 190.069 86.4555 189.949 87.0065C189.83 87.5562 189.608 88.062 189.284 88.5225C188.961 88.9831 188.52 89.3669 187.963 89.674C187.405 89.9796 186.684 90.1345 185.798 90.1345C185.058 90.1345 184.353 89.9741 183.683 89.6548C183.012 89.334 182.438 88.8926 181.961 88.3306L182.797 87.3328ZM183.018 80.9232C183.018 81.3961 183.086 81.8443 183.223 82.2665C183.359 82.6887 183.555 83.0588 183.811 83.3796C184.067 83.6989 184.382 83.9512 184.757 84.1376C185.133 84.3226 185.559 84.4158 186.036 84.4158C186.48 84.4158 186.889 84.3322 187.264 84.1664C187.639 83.9991 187.963 83.762 188.236 83.4563C188.509 83.1493 188.722 82.7806 188.875 82.3515C189.029 81.9238 189.105 81.4468 189.105 80.9232C189.105 80.4489 189.029 80.0021 188.875 79.5799C188.722 79.1577 188.509 78.7862 188.236 78.4669C187.963 78.1461 187.639 77.8898 187.264 77.6993C186.889 77.5074 186.48 77.4114 186.036 77.4114C185.559 77.4114 185.133 77.5074 184.757 77.6993C184.382 77.8898 184.067 78.1461 183.811 78.4669C183.555 78.7862 183.359 79.1577 183.223 79.5799C183.086 80.0021 183.018 80.4489 183.018 80.9232ZM203.207 85.5289C203.184 85.2849 203.167 85.0162 203.156 84.7229C203.143 84.4282 203.138 84.1856 203.138 83.9937H203.104C202.877 84.5173 202.508 84.9436 201.996 85.2684C201.485 85.596 200.945 85.7592 200.376 85.7592C199.364 85.7592 198.605 85.4192 198.1 84.7421C197.594 84.0636 197.341 83.1671 197.341 82.0554V76.5478H198.501V81.5181C198.501 81.991 198.535 82.4201 198.603 82.8039C198.671 83.1877 198.787 83.5166 198.952 83.7922C199.117 84.0663 199.339 84.2815 199.617 84.435C199.895 84.5885 200.246 84.6653 200.666 84.6653C200.973 84.6653 201.271 84.594 201.561 84.4528C201.851 84.313 202.109 84.0992 202.337 83.8113C202.565 83.5235 202.746 83.1589 202.883 82.7175C203.019 82.2761 203.087 81.7539 203.087 81.1535V76.5478H204.247V83.5523C204.247 83.7949 204.252 84.1074 204.264 84.4926C204.275 84.8764 204.292 85.2218 204.315 85.5289H203.207ZM207.316 78.5244C207.316 78.2804 207.31 77.9679 207.299 77.5841C207.287 77.2003 207.27 76.8535 207.248 76.5478H208.356C208.378 76.7905 208.395 77.0591 208.407 77.3538C208.418 77.6472 208.424 77.8898 208.424 78.0831H208.458C208.685 77.5581 209.026 77.1331 209.481 76.8069C209.936 76.4807 210.447 76.3176 211.016 76.3176C211.163 76.3176 211.297 76.323 211.417 76.3367C211.536 76.3491 211.658 76.3751 211.783 76.4135L211.63 77.6403C211.562 77.6156 211.447 77.5896 211.289 77.5649C211.129 77.5389 210.97 77.5265 210.811 77.5265C210.505 77.5265 210.209 77.5896 209.925 77.7184C209.64 77.8459 209.393 78.0474 209.183 78.3229C208.972 78.5971 208.802 78.9494 208.672 79.3784C208.54 79.8061 208.475 80.3215 208.475 80.9232V85.5289H207.316V78.5244ZM214.648 84.0128V85.5289H213.489V71.0211H214.648V78.1022H214.682C215.023 77.5128 215.466 77.0687 216.012 76.7685C216.558 76.467 217.12 76.3176 217.7 76.3176C218.325 76.3176 218.89 76.4382 219.397 76.6822C219.902 76.9248 220.335 77.2579 220.693 77.6801C221.051 78.1022 221.328 78.6012 221.528 79.1769C221.727 79.7526 221.826 80.3722 221.826 81.0384C221.826 81.7032 221.727 82.3241 221.528 82.8998C221.328 83.4755 221.051 83.9745 220.693 84.3966C220.335 84.8188 219.902 85.1505 219.397 85.3945C218.891 85.6372 218.325 85.7592 217.7 85.7592C217.12 85.7592 216.558 85.6111 216.012 85.3178C215.466 85.0231 215.023 84.5885 214.682 84.0128H214.648ZM220.599 81.0384C220.599 80.5394 220.531 80.0692 220.394 79.6279C220.258 79.1865 220.062 78.8027 219.806 78.4765C219.55 78.1502 219.235 77.8898 218.86 77.6993C218.484 77.5074 218.058 77.4114 217.581 77.4114C217.137 77.4114 216.728 77.5032 216.353 77.6897C215.978 77.8747 215.654 78.131 215.381 78.4559C215.108 78.7835 214.895 79.1673 214.742 79.6087C214.588 80.0501 214.512 80.5257 214.512 81.0384C214.512 81.5496 214.588 82.0267 214.742 82.468C214.895 82.9094 215.108 83.2891 215.381 83.6098C215.654 83.9292 215.978 84.1814 216.353 84.3679C216.728 84.5529 217.137 84.6461 217.581 84.6461C218.058 84.6461 218.484 84.5529 218.86 84.3679C219.235 84.1814 219.55 83.9265 219.806 83.6003C220.062 83.274 220.258 82.8902 220.394 82.4488C220.531 82.0075 220.599 81.5373 220.599 81.0384ZM229.346 79.7334C229.346 78.9521 229.163 78.3709 228.8 77.9857C228.436 77.6033 227.908 77.4114 227.215 77.4114C226.737 77.4114 226.294 77.5074 225.885 77.6993C225.475 77.8898 225.128 78.1461 224.845 78.4669L224.197 77.6033C224.525 77.2318 224.96 76.9248 225.501 76.6822C226.041 76.4382 226.652 76.3176 227.334 76.3176C227.766 76.3176 228.169 76.3834 228.545 76.5191C228.92 76.6534 229.249 76.8535 229.534 77.1235C229.817 77.3922 230.039 77.7308 230.199 78.1393C230.357 78.5491 230.437 79.0289 230.437 79.5799V83.5125C230.437 83.8579 230.448 84.2171 230.471 84.5885C230.495 84.9586 230.527 85.2725 230.574 85.5289H229.534C229.499 85.3109 229.47 85.0738 229.448 84.8188C229.425 84.5625 229.414 84.313 229.414 84.0704H229.38C229.016 84.6708 228.604 85.1026 228.144 85.3644C227.684 85.6276 227.129 85.7592 226.481 85.7592C226.175 85.7592 225.859 85.7112 225.535 85.6139C225.211 85.5193 224.915 85.3616 224.648 85.1437C224.382 84.9271 224.16 84.6461 223.983 84.3007C223.807 83.9553 223.719 83.5331 223.719 83.0341C223.719 82.3433 223.875 81.7964 224.188 81.3934C224.501 80.9904 224.918 80.6888 225.441 80.4914C225.964 80.2927 226.563 80.1652 227.24 80.1076C227.916 80.0501 228.619 80.0213 229.346 80.0213V79.7334ZM229.005 81.0384C228.528 81.0384 228.046 81.0603 227.564 81.1055C227.081 81.1494 226.643 81.2399 226.251 81.3742C225.859 81.5085 225.538 81.7032 225.288 81.9595C225.037 82.2144 224.913 82.5544 224.913 82.9752C224.913 83.2959 224.966 83.5646 225.075 83.7826C225.182 83.9991 225.328 84.176 225.51 84.3103C225.691 84.4446 225.893 84.5406 226.115 84.5981C226.337 84.6557 226.561 84.6845 226.788 84.6845C227.198 84.6845 227.562 84.6036 227.88 84.4446C228.198 84.2842 228.464 84.0663 228.681 83.7922C228.897 83.5166 229.061 83.2 229.176 82.8422C229.289 82.4831 229.346 82.1062 229.346 81.71V81.0384H229.005ZM234.461 76.5478C234.484 76.7905 234.5 77.0591 234.513 77.3538C234.523 77.6472 234.53 77.8898 234.53 78.0831H234.564C234.791 77.5581 235.16 77.1331 235.672 76.8069C236.184 76.4807 236.723 76.3176 237.292 76.3176C238.304 76.3176 239.061 76.6561 239.568 77.3346C240.074 78.0118 240.327 78.9082 240.327 80.0213V85.5289H239.167V80.5572C239.167 80.0843 239.133 79.6567 239.065 79.2715C238.997 78.889 238.88 78.5587 238.716 78.2846C238.55 78.009 238.328 77.7952 238.051 77.6403C237.772 77.4882 237.422 77.4114 237.002 77.4114C236.695 77.4114 236.397 77.4813 236.107 77.6225C235.817 77.7623 235.557 77.9775 235.331 78.2654C235.103 78.5518 234.922 78.9178 234.785 79.3592C234.649 79.8006 234.581 80.3215 234.581 80.9232V85.5289H233.421V78.5244C233.421 78.2804 233.415 77.9679 233.404 77.5841C233.393 77.2003 233.375 76.8535 233.353 76.5478H234.461ZM247.625 85.5289H248.784V71.0211H247.625V85.5289ZM251.905 85.5289H253.064V76.5478H251.905V85.5289ZM253.303 73.0936C253.303 73.3623 253.218 73.583 253.047 73.7557C252.877 73.9284 252.689 74.0147 252.484 74.0147C252.28 74.0147 252.092 73.9284 251.922 73.7557C251.751 73.583 251.666 73.3623 251.666 73.0936C251.666 72.8249 251.751 72.6042 251.922 72.4315C252.092 72.2588 252.28 72.1725 252.484 72.1725C252.689 72.1725 252.877 72.2588 253.047 72.4315C253.218 72.6042 253.303 72.8249 253.303 73.0936ZM259.526 77.6403H257.651V85.5289H256.491V77.6403H254.82V76.5478H256.491V74.0901C256.491 73.0676 256.713 72.2616 257.156 71.6722C257.6 71.0841 258.282 70.7908 259.202 70.7908C259.35 70.7908 259.509 70.8004 259.68 70.8196C259.85 70.8387 260.009 70.873 260.157 70.9251L259.953 72.0765C259.827 72.0381 259.703 72.0052 259.578 71.9806C259.452 71.9545 259.31 71.9422 259.151 71.9422C258.844 71.9422 258.591 71.9998 258.393 72.1135C258.194 72.23 258.039 72.3932 257.932 72.6042C257.824 72.8153 257.751 73.0607 257.711 73.3431C257.67 73.6241 257.651 73.9243 257.651 74.245V76.5478H259.526V77.6403ZM267.268 80.3475C267.234 79.5031 266.991 78.8027 266.543 78.2462C266.094 77.6897 265.454 77.4114 264.625 77.4114C264.237 77.4114 263.879 77.4909 263.551 77.6513C263.22 77.8103 262.931 78.0282 262.681 78.3037C262.43 78.5779 262.231 78.8918 262.084 79.2427C261.937 79.595 261.851 79.9623 261.828 80.3475H267.268ZM268.444 80.7697V81.0575C268.444 81.159 268.438 81.2686 268.427 81.3838H261.811C261.822 81.8306 261.901 82.2528 262.05 82.6503C262.197 83.0465 262.402 83.3919 262.664 83.6866C262.924 83.9799 263.231 84.2143 263.585 84.3871C263.937 84.5598 264.318 84.6461 264.727 84.6461C265.329 84.6461 265.849 84.4885 266.287 84.176C266.724 83.8621 267.057 83.5002 267.285 83.0917L268.154 83.8579C267.677 84.5365 267.151 85.0231 266.577 85.3178C266.002 85.6111 265.386 85.7592 264.727 85.7592C264.135 85.7592 263.587 85.6399 263.082 85.4041C262.575 85.167 262.14 84.838 261.777 84.4158C261.413 83.9936 261.127 83.4947 260.916 82.919C260.705 82.3433 260.601 81.7155 260.601 81.0384C260.601 80.3598 260.703 79.7334 260.908 79.1577C261.112 78.5806 261.396 78.0831 261.76 77.6609C262.123 77.2387 262.551 76.9083 263.039 76.6726C263.527 76.4354 264.056 76.3176 264.625 76.3176C265.25 76.3176 265.801 76.4354 266.279 76.6726C266.756 76.9083 267.154 77.2291 267.472 77.6321C267.79 78.0351 268.031 78.5052 268.197 79.0426C268.361 79.5799 268.444 80.1556 268.444 80.7697V80.7697Z" fill="black"/>
</svg>
