<svg width="9882" height="9882" viewBox="0 0 9882 9882" fill="none" xmlns="http://www.w3.org/2000/svg">
<path d="M7186.21 4940.52C7186.21 6180.78 6180.78 7186.21 4940.52 7186.21C3700.26 7186.21 2694.83 6180.78 2694.83 4940.52C2694.83 3700.26 3700.26 2694.83 4940.52 2694.83C6180.78 2694.83 7186.21 3700.26 7186.21 4940.52Z" fill="url(#paint0_linear_3249_8)"/>
<path fill-rule="evenodd" clip-rule="evenodd" d="M8084.49 4940.52C8084.49 6676.89 6676.88 8084.49 4940.52 8084.49C3204.15 8084.49 1796.55 6676.89 1796.55 4940.52C1796.55 3204.16 3204.15 1796.55 4940.52 1796.55C6676.88 1796.55 8084.49 3204.16 8084.49 4940.52ZM4940.52 7635.35C6428.83 7635.35 7635.35 6428.83 7635.35 4940.52C7635.35 3452.21 6428.83 2245.69 4940.52 2245.69C3452.21 2245.69 2245.69 3452.21 2245.69 4940.52C2245.69 6428.83 3452.21 7635.35 4940.52 7635.35Z" fill="url(#paint1_linear_3249_8)"/>
<path fill-rule="evenodd" clip-rule="evenodd" d="M9001.48 4949.88C9001.48 7187.52 7187.51 9001.48 4949.88 9001.48C2712.24 9001.48 898.275 7187.52 898.275 4949.88C898.275 2712.24 2712.24 898.277 4949.88 898.277C7187.51 898.277 9001.48 2712.24 9001.48 4949.88ZM4949.88 8552.34C6939.46 8552.34 8552.34 6939.46 8552.34 4949.88C8552.34 2960.29 6939.46 1347.42 4949.88 1347.42C2960.29 1347.42 1347.41 2960.29 1347.41 4949.88C1347.41 6939.46 2960.29 8552.34 4949.88 8552.34Z" fill="url(#paint2_linear_3249_8)"/>
<path fill-rule="evenodd" clip-rule="evenodd" d="M9881.04 4940.52C9881.04 7669.09 7669.09 9881.04 4940.52 9881.04C2211.95 9881.04 0 7669.09 0 4940.52C0 2211.95 2211.95 0 4940.52 0C7669.09 0 9881.04 2211.95 9881.04 4940.52ZM4940.52 9431.9C7421.04 9431.9 9431.9 7421.04 9431.9 4940.52C9431.9 2460 7421.04 449.138 4940.52 449.138C2460 449.138 449.138 2460 449.138 4940.52C449.138 7421.04 2460 9431.9 4940.52 9431.9Z" fill="url(#paint3_linear_3249_8)"/>
<defs>
<linearGradient id="paint0_linear_3249_8" x1="4940.52" y1="2694.83" x2="4940.52" y2="7186.21" gradientUnits="userSpaceOnUse">
<stop stop-color="#FFA848"/>
<stop offset="1" stop-color="#FF640D"/>
</linearGradient>
<linearGradient id="paint1_linear_3249_8" x1="4940.52" y1="1796.55" x2="4940.52" y2="8084.49" gradientUnits="userSpaceOnUse">
<stop stop-color="#FFA848"/>
<stop offset="1" stop-color="#FF640D"/>
</linearGradient>
<linearGradient id="paint2_linear_3249_8" x1="4949.88" y1="898.277" x2="4949.88" y2="9001.48" gradientUnits="userSpaceOnUse">
<stop stop-color="#FFA848"/>
<stop offset="1" stop-color="#FF640D"/>
</linearGradient>
<linearGradient id="paint3_linear_3249_8" x1="4940.52" y1="0" x2="4940.52" y2="9881.04" gradientUnits="userSpaceOnUse">
<stop stop-color="#FFA848"/>
<stop offset="1" stop-color="#FF640D"/>
</linearGradient>
</defs>
</svg>
