<svg width="11290" height="2297" viewBox="0 0 11290 2297" fill="none" xmlns="http://www.w3.org/2000/svg">
<path d="M1670.55 1148.5C1670.55 1436.82 1436.82 1670.55 1148.5 1670.55C860.183 1670.55 626.455 1436.82 626.455 1148.5C626.455 860.183 860.183 626.455 1148.5 626.455C1436.82 626.455 1670.55 860.183 1670.55 1148.5Z" fill="url(#paint0_linear_3365_12320)"/>
<path fill-rule="evenodd" clip-rule="evenodd" d="M1879.36 1148.5C1879.36 1552.15 1552.15 1879.36 1148.5 1879.36C744.855 1879.36 417.637 1552.15 417.637 1148.5C417.637 744.855 744.855 417.637 1148.5 417.637C1552.15 417.637 1879.36 744.855 1879.36 1148.5ZM1148.5 1774.95C1494.48 1774.95 1774.95 1494.48 1774.95 1148.5C1774.95 802.519 1494.48 522.046 1148.5 522.046C802.519 522.046 522.046 802.519 522.046 1148.5C522.046 1494.48 802.519 1774.95 1148.5 1774.95Z" fill="url(#paint1_linear_3365_12320)"/>
<path fill-rule="evenodd" clip-rule="evenodd" d="M2092.53 1150.68C2092.53 1670.85 1670.85 2092.53 1150.68 2092.53C630.502 2092.53 208.818 1670.85 208.818 1150.68C208.818 630.502 630.502 208.818 1150.68 208.818C1670.85 208.818 2092.53 630.502 2092.53 1150.68ZM1150.68 1988.12C1613.19 1988.12 1988.12 1613.19 1988.12 1150.68C1988.12 688.166 1613.19 313.227 1150.68 313.227C688.166 313.227 313.227 688.166 313.227 1150.68C313.227 1613.19 688.166 1988.12 1150.68 1988.12Z" fill="url(#paint2_linear_3365_12320)"/>
<path fill-rule="evenodd" clip-rule="evenodd" d="M2297 1148.5C2297 1782.8 1782.8 2297 1148.5 2297C514.201 2297 0 1782.8 0 1148.5C0 514.201 514.201 0 1148.5 0C1782.8 0 2297 514.201 2297 1148.5ZM1148.5 2192.59C1725.14 2192.59 2192.59 1725.14 2192.59 1148.5C2192.59 571.865 1725.14 104.409 1148.5 104.409C571.865 104.409 104.409 571.865 104.409 1148.5C104.409 1725.14 571.865 2192.59 1148.5 2192.59Z" fill="url(#paint3_linear_3365_12320)"/>
<path d="M2747.93 1600C2775.34 1537.23 2797.44 1477.12 2814.24 1419.65C2831.92 1362.19 2843.41 1305.17 2848.72 1248.59L2905.74 669.09H3153.72L3400.37 1389.15L3620.5 669.09H3771.67L3902.95 1600H3656.3L3563.48 939.611L3363.24 1600H3225.32L2922.98 718.155L2872.59 1248.59C2865.51 1322.85 2861.98 1386.06 2861.98 1438.22C2861.98 1490.38 2866.4 1544.3 2875.24 1600H2747.93ZM4223.98 1922.24C4143.53 1922.24 4063.52 1911.19 3983.96 1889.09L4034.35 1739.24C4144.86 1839.14 4239.01 1889.09 4316.8 1889.09C4357.47 1889.09 4394.16 1879.8 4426.87 1861.24C4460.46 1843.56 4486.1 1818.36 4503.78 1785.65C4522.35 1753.83 4531.63 1718.02 4531.63 1678.24V1418.33H4528.98C4514.83 1460.76 4492.73 1497.45 4462.67 1528.39C4432.62 1559.33 4399.46 1582.76 4363.22 1598.67C4326.97 1614.59 4292.49 1622.54 4259.78 1622.54C4212.93 1622.54 4169.17 1608.4 4128.5 1580.11C4088.72 1551.82 4056.45 1510.71 4031.7 1456.78C4007.83 1401.97 3995.89 1337.88 3995.89 1264.5V833.524H4243.87V1334.78C4243.87 1380.75 4248.29 1419.65 4257.13 1451.48C4266.86 1483.3 4279.67 1507.17 4295.59 1523.09C4312.38 1539 4331.39 1546.96 4352.61 1546.96C4372.06 1546.96 4393.28 1539.88 4416.26 1525.74C4440.13 1510.71 4462.23 1489.05 4482.56 1460.76C4502.9 1432.47 4519.25 1398.44 4531.63 1358.65V833.524H4779.61V1458.11C4779.61 1549.17 4755.3 1629.62 4706.67 1699.46C4658.93 1770.18 4592.63 1824.99 4507.76 1863.89C4423.78 1902.79 4329.18 1922.24 4223.98 1922.24ZM4931.07 1600V669.09H5323.59C5469.46 669.09 5582.18 706.662 5661.74 781.807C5742.19 856.068 5782.42 967.9 5782.42 1117.31C5782.42 1226.04 5759.87 1316.66 5714.79 1389.15C5670.58 1461.65 5613.12 1515.13 5542.4 1549.61C5472.55 1583.2 5398.29 1600 5319.61 1600H4931.07ZM5232.09 1572.15C5294.86 1572.15 5348.34 1559.33 5392.55 1533.7C5436.75 1507.17 5471.67 1460.32 5497.31 1393.13C5522.95 1325.94 5535.76 1234 5535.76 1117.31C5535.76 1014.76 5523.39 932.538 5498.63 870.654C5474.76 807.887 5442.94 763.242 5403.16 736.72C5364.26 710.198 5319.61 697.38 5269.22 698.264H5179.05V1572.15H5232.09ZM6349.21 1619.89C6267.88 1619.89 6190.97 1603.54 6118.47 1570.83C6046.87 1537.23 5988.96 1488.61 5944.76 1424.96C5901.44 1361.31 5879.78 1286.16 5879.78 1199.52C5879.78 1117.31 5901 1047.02 5943.43 988.676C5985.87 929.444 6040.24 885.241 6106.54 856.068C6173.73 826.01 6244.45 810.981 6318.71 810.981C6384.13 810.981 6445.13 822.915 6501.71 846.785C6559.18 869.77 6604.7 904.249 6638.3 950.219C6672.78 996.19 6690.02 1051.89 6690.02 1117.31C6690.02 1150.9 6685.6 1184.94 6676.76 1219.41H6127.76C6129.53 1300.75 6138.81 1369.26 6155.6 1424.96C6172.4 1479.77 6195.39 1521.32 6224.56 1549.61C6253.74 1577.9 6287.77 1592.04 6326.67 1592.04C6369.99 1592.04 6418.17 1572.59 6471.21 1533.7C6524.26 1494.8 6578.18 1437.78 6632.99 1362.63L6682.06 1512.48C6634.32 1547.84 6581.72 1574.8 6524.26 1593.37C6466.79 1611.05 6408.44 1619.89 6349.21 1619.89ZM6451.32 1192.89C6456.63 1161.07 6459.28 1133.22 6459.28 1109.35C6459.28 1051 6452.65 1001.49 6439.39 960.828C6426.13 920.162 6408.89 890.104 6387.67 870.654C6366.45 851.205 6343.02 841.481 6317.39 841.481C6287.33 841.481 6257.71 855.183 6228.54 882.589C6200.25 909.995 6176.82 950.661 6158.26 1004.59C6139.69 1057.63 6129.53 1120.4 6127.76 1192.89H6451.32ZM7089.87 1623.87C7035.94 1623.87 6979.81 1619.01 6921.46 1609.28C6863.11 1599.56 6804.76 1586.3 6746.42 1569.5L6783.55 1419.65C6858.69 1481.54 6928.09 1524.41 6991.74 1548.28C7056.28 1572.15 7112.86 1584.09 7161.48 1584.09C7194.19 1584.09 7219.39 1578.78 7237.07 1568.17C7254.75 1557.57 7263.59 1544.75 7263.59 1529.72C7263.59 1503.2 7252.1 1476.67 7229.11 1450.15C7207.01 1422.75 7179.16 1397.11 7145.57 1373.24C7112.86 1349.37 7068.65 1319.75 7012.96 1284.39C6951.96 1245.49 6902.89 1212.34 6865.76 1184.94C6828.63 1156.65 6797.25 1126.59 6771.61 1094.76C6745.97 1062.05 6733.16 1028.46 6733.16 993.98C6733.16 934.748 6774.26 890.104 6856.48 860.046C6938.7 829.988 7037.71 814.959 7153.52 814.959C7248.12 814.959 7338.73 824.242 7425.37 842.807L7400.17 992.654C7353.32 954.64 7292.76 921.488 7218.5 893.198C7144.24 864.024 7081.03 849.437 7028.87 849.437C6997.93 849.437 6973.62 854.741 6955.94 865.35C6939.14 875.959 6930.74 891.872 6930.74 913.089C6930.74 932.538 6945.33 953.756 6974.5 976.741C7004.56 999.726 7053.18 1031.99 7120.37 1073.55C7187.56 1115.1 7243.26 1151.78 7287.46 1183.61C7331.66 1214.55 7369.68 1249.47 7401.5 1288.37C7433.33 1327.27 7449.24 1366.61 7449.24 1406.39C7449.24 1481.54 7414.32 1536.79 7344.48 1572.15C7275.52 1606.63 7190.65 1623.87 7089.87 1623.87ZM7543.22 1600V833.524H7789.87V1600H7543.22ZM7666.54 789.763C7631.18 789.763 7601.56 777.829 7577.69 753.959C7553.82 730.09 7541.89 700.474 7541.89 665.112C7541.89 630.633 7553.82 601.46 7577.69 577.59C7601.56 552.837 7631.18 540.46 7666.54 540.46C7701.02 540.46 7730.19 552.837 7754.06 577.59C7778.82 601.46 7791.19 630.633 7791.19 665.112C7791.19 700.474 7778.82 730.09 7754.06 753.959C7730.19 777.829 7701.02 789.763 7666.54 789.763ZM8119.1 1924.89C8050.14 1924.89 7977.21 1916.93 7900.29 1901.02L7949.36 1751.17C8072.24 1844 8172.58 1890.41 8250.38 1890.41C8289.28 1890.41 8321.55 1879.36 8347.18 1857.26C8373.71 1835.16 8393.16 1804.22 8405.53 1764.43C8417.91 1724.65 8424.1 1678.24 8424.1 1625.2V1488.61H8421.45C8400.23 1528.39 8367.96 1560.22 8324.64 1584.09C8282.21 1607.07 8236.24 1618.57 8186.73 1618.57C8134.57 1618.57 8085.95 1605.3 8040.86 1578.78C7995.77 1552.26 7959.08 1509.83 7930.79 1451.48C7902.5 1392.25 7888.36 1317.1 7888.36 1226.04C7888.36 1142.94 7904.71 1070.45 7937.42 1008.57C7970.14 946.683 8013.9 899.386 8068.71 866.676C8123.52 833.082 8183.63 816.285 8249.05 816.285C8309.17 816.285 8367.52 830.43 8424.1 858.72V833.524H8672.07V1458.11C8672.07 1551.82 8648.65 1634.04 8601.79 1704.76C8555.82 1775.48 8490.84 1829.85 8406.86 1867.87C8323.76 1905.88 8227.84 1924.89 8119.1 1924.89ZM8280.88 1545.63C8299.45 1545.63 8317.13 1541.65 8333.92 1533.7C8351.6 1524.86 8367.96 1512.04 8382.99 1495.24C8398.9 1477.56 8412.6 1455.9 8424.1 1430.26V893.198C8386.97 871.096 8351.6 860.046 8318.01 860.046C8275.58 860.046 8239.33 877.285 8209.27 911.763C8179.21 945.357 8156.67 989.56 8141.64 1044.37C8126.61 1099.18 8119.1 1157.53 8119.1 1219.41C8119.1 1277.76 8125.29 1332.13 8137.66 1382.52C8150.92 1432.03 8169.93 1471.81 8194.69 1501.87C8219.44 1531.04 8248.17 1545.63 8280.88 1545.63ZM9364.19 1044.37C9364.19 992.212 9356.67 953.756 9341.64 929.002C9326.61 903.364 9305.84 890.546 9279.32 890.546C9256.33 890.546 9230.69 899.386 9202.4 917.067C9175 933.864 9146.71 957.734 9117.54 988.676C9089.25 1019.62 9062.72 1054.54 9037.97 1093.44H9012.77C9050.79 1028.9 9091.46 975.415 9134.77 932.98C9178.09 890.546 9222.3 859.604 9267.38 840.155C9312.47 820.705 9357.11 810.981 9401.32 810.981C9434.91 810.981 9467.62 818.937 9499.45 834.85C9532.16 849.879 9558.68 873.307 9579.01 905.133C9600.23 936.959 9610.84 977.183 9610.84 1025.81V1600H9364.19V1044.37ZM8801.93 1600V834.85H9048.58V1600H8801.93ZM10166.9 1619.89C10085.5 1619.89 10008.6 1603.54 9936.14 1570.83C9864.53 1537.23 9806.63 1488.61 9762.43 1424.96C9719.11 1361.31 9697.45 1286.16 9697.45 1199.52C9697.45 1117.31 9718.66 1047.02 9761.1 988.676C9803.53 929.444 9857.9 885.241 9924.21 856.068C9991.4 826.01 10062.1 810.981 10136.4 810.981C10201.8 810.981 10262.8 822.915 10319.4 846.785C10376.8 869.77 10422.4 904.249 10456 950.219C10490.4 996.19 10507.7 1051.89 10507.7 1117.31C10507.7 1150.9 10503.3 1184.94 10494.4 1219.41H9945.42C9947.19 1300.75 9956.48 1369.26 9973.27 1424.96C9990.07 1479.77 10013.1 1521.32 10042.2 1549.61C10071.4 1577.9 10105.4 1592.04 10144.3 1592.04C10187.7 1592.04 10235.8 1572.59 10288.9 1533.7C10341.9 1494.8 10395.9 1437.78 10450.7 1362.63L10499.7 1512.48C10452 1547.84 10399.4 1574.8 10341.9 1593.37C10284.5 1611.05 10226.1 1619.89 10166.9 1619.89ZM10269 1192.89C10274.3 1161.07 10276.9 1133.22 10276.9 1109.35C10276.9 1051 10270.3 1001.49 10257.1 960.828C10243.8 920.162 10226.6 890.104 10205.3 870.654C10184.1 851.205 10160.7 841.481 10135.1 841.481C10105 841.481 10075.4 855.183 10046.2 882.589C10017.9 909.995 9994.49 950.661 9975.92 1004.59C9957.36 1057.63 9947.19 1120.4 9945.42 1192.89H10269ZM10604.6 1600V833.524H10851.2V1191.57H10852.5C10872.9 1104.93 10903.4 1029.78 10944 966.132C10984.7 901.596 11031.6 856.952 11084.6 832.198C11138.5 806.56 11192.9 807.002 11247.7 833.524L11222.5 983.371C11160.6 955.966 11105.4 948.893 11056.8 962.154C11008.1 975.415 10966.6 1007.68 10932.1 1058.96C10898.5 1110.23 10871.6 1178.31 10851.2 1263.17V1600H10604.6Z" fill="black"/>
<defs>
<linearGradient id="paint0_linear_3365_12320" x1="1148.5" y1="626.455" x2="1148.5" y2="1670.55" gradientUnits="userSpaceOnUse">
<stop stop-color="#FFA848"/>
<stop offset="1" stop-color="#FF640D"/>
</linearGradient>
<linearGradient id="paint1_linear_3365_12320" x1="1148.5" y1="417.637" x2="1148.5" y2="1879.36" gradientUnits="userSpaceOnUse">
<stop stop-color="#FFA848"/>
<stop offset="1" stop-color="#FF640D"/>
</linearGradient>
<linearGradient id="paint2_linear_3365_12320" x1="1150.68" y1="208.818" x2="1150.68" y2="2092.53" gradientUnits="userSpaceOnUse">
<stop stop-color="#FFA848"/>
<stop offset="1" stop-color="#FF640D"/>
</linearGradient>
<linearGradient id="paint3_linear_3365_12320" x1="1148.5" y1="0" x2="1148.5" y2="2297" gradientUnits="userSpaceOnUse">
<stop stop-color="#FFA848"/>
<stop offset="1" stop-color="#FF640D"/>
</linearGradient>
</defs>
</svg>
