<svg xmlns="http://www.w3.org/2000/svg" viewBox="0 0 1200 630" fill="none">
  <defs>
    <linearGradient id="bgGrad" x1="0" y1="0" x2="1200" y2="630" gradientUnits="userSpaceOnUse">
      <stop offset="0%" stop-color="#FFF6E8"/>
      <stop offset="100%" stop-color="#FEF0D8"/>
    </linearGradient>
    <linearGradient id="blobBL" x1="0" y1="630" x2="470" y2="20" gradientUnits="userSpaceOnUse">
      <stop offset="0%" stop-color="#FFA848" stop-opacity="0.27"/>
      <stop offset="62%" stop-color="#FFD4A0" stop-opacity="0.07"/>
      <stop offset="100%" stop-color="#FFA848" stop-opacity="0"/>
    </linearGradient>
    <linearGradient id="blobTR" x1="1200" y1="0" x2="710" y2="610" gradientUnits="userSpaceOnUse">
      <stop offset="0%" stop-color="#FFA848" stop-opacity="0.22"/>
      <stop offset="62%" stop-color="#FFCB87" stop-opacity="0.06"/>
      <stop offset="100%" stop-color="#FFA848" stop-opacity="0"/>
    </linearGradient>
    <radialGradient id="centerVeil" cx="600" cy="315" r="340" gradientUnits="userSpaceOnUse">
      <stop offset="0%" stop-color="#FFF8EE" stop-opacity="0.88"/>
      <stop offset="75%" stop-color="#FFF8EE" stop-opacity="0.3"/>
      <stop offset="100%" stop-color="#FFF8EE" stop-opacity="0"/>
    </radialGradient>
    <pattern id="gridPat" x="0" y="0" width="60" height="60" patternUnits="userSpaceOnUse">
      <path d="M 60 0 L 0 0 0 60" fill="none" stroke="#FFA848" stroke-width="0.5" stroke-opacity="0.12"/>
    </pattern>
    <pattern id="dotPat" x="0" y="0" width="20" height="20" patternUnits="userSpaceOnUse">
      <circle cx="10" cy="10" r="1.2" fill="#FFA848" fill-opacity="0.28"/>
    </pattern>
  </defs>

  <rect width="1200" height="630" fill="url(#bgGrad)"/>
  <rect width="1200" height="630" fill="url(#gridPat)"/>

  <!-- Dot pattern — top-left -->
  <rect x="0" y="0" width="305" height="195" fill="url(#dotPat)" opacity="0.74"/>
  <!-- Dot pattern — bottom-right -->
  <rect x="800" y="362" width="400" height="268" fill="url(#dotPat)" opacity="0.69"/>

  <!-- Wave blob — bottom-left (lower, more horizontal sweep) -->
  <path d="M -72 630 C 55 608, 138 558, 202 465 C 282 348, 138 268, 215 138 C 278 38, 115 -18, -72 0 Z" fill="url(#blobBL)"/>

  <!-- Wave blob — top-right (lower, more horizontal) -->
  <path d="M 1272 0 C 1105 48, 1008 122, 972 240 C 912 385, 1092 432, 1022 548 C 972 628, 1108 645, 1272 630 Z" fill="url(#blobTR)"/>

  <!-- Flowing curves — left side (more horizontal arcs) -->
  <path d="M -42 570 C 115 445, 70 302, 202 182 C 285 102, 408 115, 372 -22" fill="none" stroke="#FFD4A0" stroke-width="2" stroke-opacity="0.31" stroke-linecap="round"/>
  <path d="M -42 655 C 148 505, 102 348, 238 218 C 338 130, 458 145, 420 -12" fill="none" stroke="#FFA848" stroke-width="1.5" stroke-opacity="0.27" stroke-linecap="round"/>
  <path d="M -42 485 C 92 382, 50 262, 158 152 C 235 72, 348 85, 315 -34" fill="none" stroke="#FFA848" stroke-width="0.8" stroke-opacity="0.17" stroke-linecap="round"/>

  <!-- Flowing curves — right side -->
  <path d="M 1242 62 C 1078 195, 1142 342, 1002 462 C 902 552, 782 530, 824 662" fill="none" stroke="#FFD4A0" stroke-width="2" stroke-opacity="0.31" stroke-linecap="round"/>
  <path d="M 1342 102 C 1158 242, 1222 382, 1082 502 C 982 590, 862 565, 904 698" fill="none" stroke="#FFA848" stroke-width="1.5" stroke-opacity="0.27" stroke-linecap="round"/>
  <path d="M 1142 38 C 998 175, 1062 312, 922 428 C 822 515, 705 492, 745 620" fill="none" stroke="#FFA848" stroke-width="0.8" stroke-opacity="0.17" stroke-linecap="round"/>

  <!-- Concentric arcs — top-left -->
  <path d="M 20 200 A 178 178 0 0 1 200 20" fill="none" stroke="#FFA848" stroke-width="1" stroke-opacity="0.27" stroke-linecap="round"/>
  <path d="M 20 252 A 230 230 0 0 1 252 20" fill="none" stroke="#FFA848" stroke-width="0.7" stroke-opacity="0.17" stroke-linecap="round"/>
  <path d="M 20 305 A 282 282 0 0 1 305 20" fill="none" stroke="#FFA848" stroke-width="0.5" stroke-opacity="0.12" stroke-linecap="round"/>

  <!-- Concentric arcs — bottom-right -->
  <path d="M 1180 430 A 178 178 0 0 1 1002 610" fill="none" stroke="#FFA848" stroke-width="1" stroke-opacity="0.27" stroke-linecap="round"/>
  <path d="M 1180 378 A 230 230 0 0 1 950 610" fill="none" stroke="#FFA848" stroke-width="0.7" stroke-opacity="0.17" stroke-linecap="round"/>
  <path d="M 1180 325 A 282 282 0 0 1 898 610" fill="none" stroke="#FFA848" stroke-width="0.5" stroke-opacity="0.12" stroke-linecap="round"/>

  <!-- Geometric accents — top-right -->
  <rect x="968" y="52" width="11" height="11" rx="1.5" transform="rotate(45 973.5 57.5)" fill="#FFA848" fill-opacity="0.31"/>
  <circle cx="835" cy="90" r="5" fill="none" stroke="#FFA848" stroke-width="1.5" stroke-opacity="0.37"/>
  <circle cx="835" cy="90" r="10" fill="none" stroke="#FFA848" stroke-width="0.7" stroke-opacity="0.17"/>
  <circle cx="1048" cy="118" r="2.5" fill="#FFA848" fill-opacity="0.27"/>
  <circle cx="1061" cy="110" r="1.7" fill="#FFA848" fill-opacity="0.17"/>
  <circle cx="1056" cy="128" r="1.4" fill="#FFA848" fill-opacity="0.13"/>

  <!-- Geometric accents — bottom-left -->
  <rect x="135" y="524" width="11" height="11" rx="1.5" transform="rotate(45 140.5 529.5)" fill="#FFA848" fill-opacity="0.31"/>
  <circle cx="295" cy="484" r="5" fill="none" stroke="#FFA848" stroke-width="1.5" stroke-opacity="0.37"/>
  <circle cx="295" cy="484" r="10" fill="none" stroke="#FFA848" stroke-width="0.7" stroke-opacity="0.17"/>
  <circle cx="140" cy="392" r="2.5" fill="#FFA848" fill-opacity="0.27"/>
  <circle cx="128" cy="384" r="1.7" fill="#FFA848" fill-opacity="0.17"/>
  <circle cx="134" cy="402" r="1.4" fill="#FFA848" fill-opacity="0.13"/>

  <line x1="0" y1="315" x2="252" y2="315" stroke="#FFA848" stroke-width="0.5" stroke-opacity="0.12"/>
  <line x1="948" y1="315" x2="1200" y2="315" stroke="#FFA848" stroke-width="0.5" stroke-opacity="0.12"/>

  <rect width="1200" height="630" fill="url(#centerVeil)"/>
</svg>
