<svg xmlns="http://www.w3.org/2000/svg" viewBox="0 0 1200 630" fill="none">
  <defs>
    <linearGradient id="bgGrad" x1="0" y1="0" x2="1200" y2="630" gradientUnits="userSpaceOnUse">
      <stop offset="0%" stop-color="#FFF6E8"/>
      <stop offset="100%" stop-color="#FEF0D8"/>
    </linearGradient>
    <linearGradient id="blobBL" x1="0" y1="630" x2="500" y2="0" gradientUnits="userSpaceOnUse">
      <stop offset="0%" stop-color="#FFA848" stop-opacity="0.26"/>
      <stop offset="65%" stop-color="#FFD4A0" stop-opacity="0.07"/>
      <stop offset="100%" stop-color="#FFA848" stop-opacity="0"/>
    </linearGradient>
    <linearGradient id="blobTR" x1="1200" y1="0" x2="700" y2="630" gradientUnits="userSpaceOnUse">
      <stop offset="0%" stop-color="#FFA848" stop-opacity="0.20"/>
      <stop offset="65%" stop-color="#FFCB87" stop-opacity="0.06"/>
      <stop offset="100%" stop-color="#FFA848" stop-opacity="0"/>
    </linearGradient>
    <radialGradient id="centerVeil" cx="600" cy="315" r="340" gradientUnits="userSpaceOnUse">
      <stop offset="0%" stop-color="#FFF8EE" stop-opacity="0.88"/>
      <stop offset="75%" stop-color="#FFF8EE" stop-opacity="0.3"/>
      <stop offset="100%" stop-color="#FFF8EE" stop-opacity="0"/>
    </radialGradient>
    <pattern id="gridPat" x="0" y="0" width="60" height="60" patternUnits="userSpaceOnUse">
      <path d="M 60 0 L 0 0 0 60" fill="none" stroke="#FFA848" stroke-width="0.5" stroke-opacity="0.12"/>
    </pattern>
    <pattern id="dotPat" x="0" y="0" width="20" height="20" patternUnits="userSpaceOnUse">
      <circle cx="10" cy="10" r="1.2" fill="#FFA848" fill-opacity="0.28"/>
    </pattern>
  </defs>

  <rect width="1200" height="630" fill="url(#bgGrad)"/>
  <rect width="1200" height="630" fill="url(#gridPat)"/>

  <!-- Dot pattern — top-left -->
  <rect x="0" y="0" width="280" height="190" fill="url(#dotPat)" opacity="0.72"/>
  <!-- Dot pattern — bottom-right -->
  <rect x="830" y="370" width="370" height="260" fill="url(#dotPat)" opacity="0.68"/>

  <!-- Wave blob — bottom-left (wider, rounder) -->
  <path d="M -80 630 C 50 570, 170 500, 240 400 C 330 280, 155 195, 260 75 C 335 -15, 148 -22, -80 0 Z" fill="url(#blobBL)"/>

  <!-- Wave blob — top-right (taller, more vertical) -->
  <path d="M 1280 0 C 1110 80, 955 165, 918 290 C 858 445, 1072 482, 978 602 C 928 672, 1120 662, 1280 630 Z" fill="url(#blobTR)"/>

  <!-- Flowing curves — left side -->
  <path d="M -50 540 C 110 415, 68 278, 198 158 C 280 80, 398 92, 362 -38" fill="none" stroke="#FFD4A0" stroke-width="2" stroke-opacity="0.30" stroke-linecap="round"/>
  <path d="M -50 625 C 145 475, 102 322, 238 192 C 338 104, 452 118, 415 -28" fill="none" stroke="#FFA848" stroke-width="1.5" stroke-opacity="0.26" stroke-linecap="round"/>
  <path d="M -50 455 C 90 352, 52 238, 162 128 C 238 52, 348 64, 315 -48" fill="none" stroke="#FFA848" stroke-width="0.8" stroke-opacity="0.17" stroke-linecap="round"/>

  <!-- Flowing curves — right side -->
  <path d="M 1250 58 C 1092 192, 1158 338, 1018 458 C 920 548, 802 528, 842 658" fill="none" stroke="#FFD4A0" stroke-width="2" stroke-opacity="0.30" stroke-linecap="round"/>
  <path d="M 1350 98 C 1172 235, 1238 378, 1098 498 C 1000 585, 880 562, 920 692" fill="none" stroke="#FFA848" stroke-width="1.5" stroke-opacity="0.26" stroke-linecap="round"/>
  <path d="M 1155 32 C 1018 168, 1082 308, 942 422 C 845 508, 738 488, 775 612" fill="none" stroke="#FFA848" stroke-width="0.8" stroke-opacity="0.17" stroke-linecap="round"/>

  <!-- Concentric arcs — top-left -->
  <path d="M 20 205 A 182 182 0 0 1 205 20" fill="none" stroke="#FFA848" stroke-width="1" stroke-opacity="0.27" stroke-linecap="round"/>
  <path d="M 20 255 A 235 235 0 0 1 255 20" fill="none" stroke="#FFA848" stroke-width="0.7" stroke-opacity="0.17" stroke-linecap="round"/>
  <path d="M 20 308 A 288 288 0 0 1 308 20" fill="none" stroke="#FFA848" stroke-width="0.5" stroke-opacity="0.12" stroke-linecap="round"/>

  <!-- Concentric arcs — bottom-right -->
  <path d="M 1180 425 A 182 182 0 0 1 995 608" fill="none" stroke="#FFA848" stroke-width="1" stroke-opacity="0.27" stroke-linecap="round"/>
  <path d="M 1180 375 A 235 235 0 0 1 945 608" fill="none" stroke="#FFA848" stroke-width="0.7" stroke-opacity="0.17" stroke-linecap="round"/>
  <path d="M 1180 322 A 288 288 0 0 1 892 608" fill="none" stroke="#FFA848" stroke-width="0.5" stroke-opacity="0.12" stroke-linecap="round"/>

  <!-- Geometric accents — top-right -->
  <rect x="962" y="48" width="11" height="11" rx="1.5" transform="rotate(45 967.5 53.5)" fill="#FFA848" fill-opacity="0.30"/>
  <circle cx="830" cy="88" r="5" fill="none" stroke="#FFA848" stroke-width="1.5" stroke-opacity="0.36"/>
  <circle cx="830" cy="88" r="10" fill="none" stroke="#FFA848" stroke-width="0.7" stroke-opacity="0.17"/>
  <circle cx="1045" cy="115" r="2.5" fill="#FFA848" fill-opacity="0.26"/>
  <circle cx="1058" cy="107" r="1.7" fill="#FFA848" fill-opacity="0.17"/>
  <circle cx="1053" cy="125" r="1.4" fill="#FFA848" fill-opacity="0.13"/>

  <!-- Geometric accents — bottom-left -->
  <rect x="128" y="520" width="11" height="11" rx="1.5" transform="rotate(45 133.5 525.5)" fill="#FFA848" fill-opacity="0.30"/>
  <circle cx="288" cy="482" r="5" fill="none" stroke="#FFA848" stroke-width="1.5" stroke-opacity="0.36"/>
  <circle cx="288" cy="482" r="10" fill="none" stroke="#FFA848" stroke-width="0.7" stroke-opacity="0.17"/>
  <circle cx="138" cy="392" r="2.5" fill="#FFA848" fill-opacity="0.26"/>
  <circle cx="126" cy="384" r="1.7" fill="#FFA848" fill-opacity="0.17"/>
  <circle cx="132" cy="402" r="1.4" fill="#FFA848" fill-opacity="0.13"/>

  <line x1="0" y1="315" x2="255" y2="315" stroke="#FFA848" stroke-width="0.5" stroke-opacity="0.12"/>
  <line x1="945" y1="315" x2="1200" y2="315" stroke="#FFA848" stroke-width="0.5" stroke-opacity="0.12"/>

  <rect width="1200" height="630" fill="url(#centerVeil)"/>
</svg>
