<svg xmlns="http://www.w3.org/2000/svg" viewBox="0 0 1200 630" fill="none">
  <defs>
    <linearGradient id="bgGrad" x1="0" y1="0" x2="1200" y2="630" gradientUnits="userSpaceOnUse">
      <stop offset="0%" stop-color="#FFF6E8"/>
      <stop offset="100%" stop-color="#FEF0D8"/>
    </linearGradient>
    <linearGradient id="blobBL" x1="0" y1="630" x2="520" y2="0" gradientUnits="userSpaceOnUse">
      <stop offset="0%" stop-color="#FFA848" stop-opacity="0.30"/>
      <stop offset="60%" stop-color="#FFD4A0" stop-opacity="0.08"/>
      <stop offset="100%" stop-color="#FFA848" stop-opacity="0"/>
    </linearGradient>
    <linearGradient id="blobTR" x1="1200" y1="0" x2="680" y2="630" gradientUnits="userSpaceOnUse">
      <stop offset="0%" stop-color="#FFA848" stop-opacity="0.24"/>
      <stop offset="60%" stop-color="#FFCB87" stop-opacity="0.07"/>
      <stop offset="100%" stop-color="#FFA848" stop-opacity="0"/>
    </linearGradient>
    <radialGradient id="centerVeil" cx="600" cy="315" r="340" gradientUnits="userSpaceOnUse">
      <stop offset="0%" stop-color="#FFF8EE" stop-opacity="0.88"/>
      <stop offset="75%" stop-color="#FFF8EE" stop-opacity="0.3"/>
      <stop offset="100%" stop-color="#FFF8EE" stop-opacity="0"/>
    </radialGradient>
    <pattern id="gridPat" x="0" y="0" width="60" height="60" patternUnits="userSpaceOnUse">
      <path d="M 60 0 L 0 0 0 60" fill="none" stroke="#FFA848" stroke-width="0.5" stroke-opacity="0.12"/>
    </pattern>
    <pattern id="dotPat" x="0" y="0" width="20" height="20" patternUnits="userSpaceOnUse">
      <circle cx="10" cy="10" r="1.2" fill="#FFA848" fill-opacity="0.28"/>
    </pattern>
  </defs>

  <rect width="1200" height="630" fill="url(#bgGrad)"/>
  <rect width="1200" height="630" fill="url(#gridPat)"/>

  <!-- Dot pattern — top-left -->
  <rect x="0" y="0" width="320" height="210" fill="url(#dotPat)" opacity="0.75"/>
  <!-- Dot pattern — bottom-right -->
  <rect x="790" y="340" width="410" height="290" fill="url(#dotPat)" opacity="0.70"/>

  <!-- Wave blob — bottom-left (wider, extends further right) -->
  <path d="M -100 630 C 40 555, 210 480, 285 365 C 385 222, 175 155, 305 42 C 385 -25, 138 -32, -100 0 Z" fill="url(#blobBL)"/>

  <!-- Wave blob — top-right (wider at top) -->
  <path d="M 1300 0 C 1122 92, 938 182, 878 318 C 798 482, 1052 512, 958 612 C 902 682, 1148 672, 1300 630 Z" fill="url(#blobTR)"/>

  <!-- Flowing curves — left side -->
  <path d="M -55 520 C 118 392, 72 248, 212 128 C 300 46, 425 60, 388 -45" fill="none" stroke="#FFD4A0" stroke-width="2" stroke-opacity="0.32" stroke-linecap="round"/>
  <path d="M -55 610 C 158 462, 112 308, 252 178 C 358 88, 478 105, 438 -32" fill="none" stroke="#FFA848" stroke-width="1.5" stroke-opacity="0.28" stroke-linecap="round"/>
  <path d="M -55 435 C 98 332, 55 215, 172 105 C 252 28, 368 42, 332 -55" fill="none" stroke="#FFA848" stroke-width="0.8" stroke-opacity="0.18" stroke-linecap="round"/>

  <!-- Flowing curves — right side -->
  <path d="M 1255 45 C 1085 182, 1155 332, 1005 452 C 902 542, 778 518, 820 650" fill="none" stroke="#FFD4A0" stroke-width="2" stroke-opacity="0.32" stroke-linecap="round"/>
  <path d="M 1355 85 C 1165 228, 1235 372, 1085 492 C 982 578, 858 552, 900 685" fill="none" stroke="#FFA848" stroke-width="1.5" stroke-opacity="0.28" stroke-linecap="round"/>
  <path d="M 1158 25 C 1012 165, 1078 305, 930 418 C 828 504, 712 480, 752 608" fill="none" stroke="#FFA848" stroke-width="0.8" stroke-opacity="0.18" stroke-linecap="round"/>

  <!-- Concentric arcs — top-left -->
  <path d="M 20 215 A 192 192 0 0 1 215 20" fill="none" stroke="#FFA848" stroke-width="1" stroke-opacity="0.28" stroke-linecap="round"/>
  <path d="M 20 268 A 245 245 0 0 1 268 20" fill="none" stroke="#FFA848" stroke-width="0.7" stroke-opacity="0.18" stroke-linecap="round"/>
  <path d="M 20 322 A 298 298 0 0 1 322 20" fill="none" stroke="#FFA848" stroke-width="0.5" stroke-opacity="0.13" stroke-linecap="round"/>

  <!-- Concentric arcs — bottom-right -->
  <path d="M 1180 415 A 192 192 0 0 1 988 608" fill="none" stroke="#FFA848" stroke-width="1" stroke-opacity="0.28" stroke-linecap="round"/>
  <path d="M 1180 362 A 245 245 0 0 1 935 608" fill="none" stroke="#FFA848" stroke-width="0.7" stroke-opacity="0.18" stroke-linecap="round"/>
  <path d="M 1180 308 A 298 298 0 0 1 882 608" fill="none" stroke="#FFA848" stroke-width="0.5" stroke-opacity="0.13" stroke-linecap="round"/>

  <!-- Geometric accents — top-right -->
  <rect x="988" y="55" width="11" height="11" rx="1.5" transform="rotate(45 993.5 60.5)" fill="#FFA848" fill-opacity="0.32"/>
  <circle cx="852" cy="95" r="5" fill="none" stroke="#FFA848" stroke-width="1.5" stroke-opacity="0.38"/>
  <circle cx="852" cy="95" r="10" fill="none" stroke="#FFA848" stroke-width="0.7" stroke-opacity="0.18"/>
  <circle cx="1065" cy="125" r="2.5" fill="#FFA848" fill-opacity="0.28"/>
  <circle cx="1078" cy="117" r="1.7" fill="#FFA848" fill-opacity="0.18"/>
  <circle cx="1073" cy="135" r="1.4" fill="#FFA848" fill-opacity="0.14"/>

  <!-- Geometric accents — bottom-left -->
  <rect x="152" y="535" width="11" height="11" rx="1.5" transform="rotate(45 157.5 540.5)" fill="#FFA848" fill-opacity="0.32"/>
  <circle cx="312" cy="495" r="5" fill="none" stroke="#FFA848" stroke-width="1.5" stroke-opacity="0.38"/>
  <circle cx="312" cy="495" r="10" fill="none" stroke="#FFA848" stroke-width="0.7" stroke-opacity="0.18"/>
  <circle cx="158" cy="402" r="2.5" fill="#FFA848" fill-opacity="0.28"/>
  <circle cx="146" cy="394" r="1.7" fill="#FFA848" fill-opacity="0.18"/>
  <circle cx="152" cy="412" r="1.4" fill="#FFA848" fill-opacity="0.14"/>

  <line x1="0" y1="315" x2="265" y2="315" stroke="#FFA848" stroke-width="0.5" stroke-opacity="0.13"/>
  <line x1="935" y1="315" x2="1200" y2="315" stroke="#FFA848" stroke-width="0.5" stroke-opacity="0.13"/>

  <rect width="1200" height="630" fill="url(#centerVeil)"/>
</svg>
