<svg width="1200" height="630" viewBox="0 0 1200 630" fill="none" xmlns="http://www.w3.org/2000/svg">
  <defs>
    <!-- Orange brand gradient -->
    <linearGradient id="blobGrad" x1="350" y1="140" x2="730" y2="530" gradientUnits="userSpaceOnUse">
      <stop offset="0%" stop-color="#FFA848"/>
      <stop offset="100%" stop-color="#FF640D"/>
    </linearGradient>
    <linearGradient id="blobGradSoft" x1="500" y1="100" x2="800" y2="400" gradientUnits="userSpaceOnUse">
      <stop offset="0%" stop-color="#FFA848" stop-opacity="0.18"/>
      <stop offset="100%" stop-color="#FF640D" stop-opacity="0.06"/>
    </linearGradient>
    <linearGradient id="ringGrad" x1="0" y1="0" x2="1" y2="1" gradientUnits="objectBoundingBox">
      <stop offset="0%" stop-color="#FFA848" stop-opacity="0.25"/>
      <stop offset="100%" stop-color="#FF640D" stop-opacity="0.08"/>
    </linearGradient>
    <!-- Dot pattern -->
    <pattern id="dots" x="0" y="0" width="36" height="36" patternUnits="userSpaceOnUse">
      <circle cx="18" cy="18" r="1.6" fill="#E4E4E4"/>
    </pattern>
    <!-- Grain noise filter -->
    <filter id="noise" x="0" y="0" width="100%" height="100%">
      <feTurbulence type="fractalNoise" baseFrequency="0.72" numOctaves="4" stitchTiles="stitch" result="noiseOut"/>
      <feColorMatrix type="matrix" values="0 0 0 0 0  0 0 0 0 0  0 0 0 0 0  0 0 0 0.06 0" in="noiseOut" result="tinted"/>
      <feComposite in="SourceGraphic" in2="tinted" operator="over"/>
    </filter>
  </defs>

  <!-- ─── Background ─── -->
  <rect width="1200" height="630" fill="#FFFFFF"/>

  <!-- ─── Dot grid (whole canvas, very subtle) ─── -->
  <rect width="1200" height="630" fill="url(#dots)"/>

  <!-- ─── Brand concentric rings — top-right, barely visible ─── -->
  <circle cx="1110" cy="80"  r="170" stroke="#F0F0F0" stroke-width="38" fill="none"/>
  <circle cx="1110" cy="80"  r="240" stroke="#F0F0F0" stroke-width="28" fill="none"/>
  <circle cx="1110" cy="80"  r="310" stroke="#EFEFEF" stroke-width="20" fill="none"/>
  <circle cx="1110" cy="80"  r="380" stroke="#EEEEEE" stroke-width="14" fill="none"/>

  <!-- ─── "Perfection" element — perfect circle, hairline stroke, center-left ─── -->
  <circle cx="510" cy="315" r="230" stroke="#DADADA" stroke-width="1.5" fill="none"/>
  <!-- A second smaller perfect circle (another "same" brand) -->
  <circle cx="700" cy="220" r="90"  stroke="#E8E8E8" stroke-width="1"   fill="none"/>
  <!-- A third -->
  <circle cx="680" cy="450" r="55"  stroke="#E8E8E8" stroke-width="1"   fill="none"/>

  <!-- ─── Small perfect squares scattered — "AI-same" motif ─── -->
  <rect x="178" y="155" width="18" height="18" rx="2" fill="#EBEBEB"/>
  <rect x="155" y="430" width="12" height="12" rx="1.5" fill="#EBEBEB"/>
  <rect x="820" y="530" width="14" height="14" rx="2" fill="#EBEBEB"/>
  <rect x="920" y="350" width="10" height="10" rx="1.5" fill="#EBEBEB"/>
  <rect x="240" y="490" width="8"  height="8"  rx="1" fill="#E8E8E8"/>

  <!-- ─── Soft orange echo blob (behind main blob, lighter) ─── -->
  <path d="
    M 430 165
    C 560 95, 740 145, 780 285
    C 820 425, 740 530, 610 555
    C 480 580, 340 530, 285 415
    C 230 300, 300 235, 430 165 Z
  " fill="url(#blobGradSoft)"/>

  <!-- ─── Main organic blob — the "personality" ─── -->
  <path d="
    M 395 195
    C 490 128, 650 155, 700 265
    C 750 375, 720 480, 635 520
    C 550 560, 415 545, 345 465
    C 275 385, 275 280, 395 195 Z
  " fill="url(#blobGrad)"/>

  <!-- ─── Thin orange accent strokes ─── -->
  <!-- Diagonal slash — energy / disruption -->
  <line x1="820" y1="570" x2="990" y2="420" stroke="#FFA848" stroke-width="1.5" stroke-linecap="round" opacity="0.5"/>
  <line x1="150" y1="560" x2="240" y2="490" stroke="#FF8A28" stroke-width="1" stroke-linecap="round" opacity="0.45"/>

  <!-- ─── Small orange dot accents ─── -->
  <circle cx="770" cy="160" r="5"   fill="#FFA848" opacity="0.65"/>
  <circle cx="810" cy="182" r="3"   fill="#FF8428" opacity="0.5"/>
  <circle cx="250" cy="205" r="4"   fill="#FF8428" opacity="0.4"/>
  <circle cx="200" cy="388" r="6"   fill="#FFA848" opacity="0.3"/>

  <!-- ─── Grain noise overlay for tactile feel ─── -->
  <rect width="1200" height="630" fill="white" opacity="0.01" filter="url(#noise)"/>
</svg>
