<svg xmlns="http://www.w3.org/2000/svg" viewBox="0 0 1200 630" fill="none">
  <defs>
    <linearGradient id="bgGrad" x1="0" y1="0" x2="1200" y2="630" gradientUnits="userSpaceOnUse">
      <stop offset="0%" stop-color="#FFF6E8"/>
      <stop offset="100%" stop-color="#FEF0D8"/>
    </linearGradient>
    <linearGradient id="blobBL" x1="0" y1="630" x2="460" y2="0" gradientUnits="userSpaceOnUse">
      <stop offset="0%" stop-color="#FFA848" stop-opacity="0.25"/>
      <stop offset="68%" stop-color="#FFD4A0" stop-opacity="0.06"/>
      <stop offset="100%" stop-color="#FFA848" stop-opacity="0"/>
    </linearGradient>
    <linearGradient id="blobTR" x1="1200" y1="0" x2="730" y2="630" gradientUnits="userSpaceOnUse">
      <stop offset="0%" stop-color="#FFA848" stop-opacity="0.21"/>
      <stop offset="68%" stop-color="#FFCB87" stop-opacity="0.06"/>
      <stop offset="100%" stop-color="#FFA848" stop-opacity="0"/>
    </linearGradient>
    <radialGradient id="centerVeil" cx="600" cy="315" r="340" gradientUnits="userSpaceOnUse">
      <stop offset="0%" stop-color="#FFF8EE" stop-opacity="0.88"/>
      <stop offset="75%" stop-color="#FFF8EE" stop-opacity="0.3"/>
      <stop offset="100%" stop-color="#FFF8EE" stop-opacity="0"/>
    </radialGradient>
    <pattern id="gridPat" x="0" y="0" width="60" height="60" patternUnits="userSpaceOnUse">
      <path d="M 60 0 L 0 0 0 60" fill="none" stroke="#FFA848" stroke-width="0.5" stroke-opacity="0.12"/>
    </pattern>
    <pattern id="dotPat" x="0" y="0" width="20" height="20" patternUnits="userSpaceOnUse">
      <circle cx="10" cy="10" r="1.2" fill="#FFA848" fill-opacity="0.28"/>
    </pattern>
  </defs>

  <rect width="1200" height="630" fill="url(#bgGrad)"/>
  <rect width="1200" height="630" fill="url(#gridPat)"/>

  <!-- Dot pattern — top-left -->
  <rect x="0" y="0" width="295" height="205" fill="url(#dotPat)" opacity="0.73"/>
  <!-- Dot pattern — bottom-right -->
  <rect x="820" y="355" width="380" height="275" fill="url(#dotPat)" opacity="0.68"/>

  <!-- Wave blob — bottom-left (rounder, more organic) -->
  <path d="M -65 630 C 85 595, 205 545, 262 448 C 348 318, 205 245, 295 125 C 362 38, 182 -12, -65 0 Z" fill="url(#blobBL)"/>

  <!-- Wave blob — top-right (slightly flatter) -->
  <path d="M 1265 0 C 1082 68, 942 148, 902 268 C 832 418, 1042 458, 965 572 C 915 648, 1092 652, 1265 630 Z" fill="url(#blobTR)"/>

  <!-- Flowing curves — left side -->
  <path d="M -45 555 C 108 428, 65 286, 195 165 C 275 86, 395 98, 358 -36" fill="none" stroke="#FFD4A0" stroke-width="2" stroke-opacity="0.31" stroke-linecap="round"/>
  <path d="M -45 642 C 138 492, 95 335, 228 205 C 328 116, 445 130, 408 -24" fill="none" stroke="#FFA848" stroke-width="1.5" stroke-opacity="0.27" stroke-linecap="round"/>
  <path d="M -45 468 C 86 368, 45 248, 152 138 C 228 60, 338 72, 305 -44" fill="none" stroke="#FFA848" stroke-width="0.8" stroke-opacity="0.17" stroke-linecap="round"/>

  <!-- Flowing curves — right side -->
  <path d="M 1245 75 C 1088 205, 1152 348, 1012 468 C 912 558, 794 538, 835 668" fill="none" stroke="#FFD4A0" stroke-width="2" stroke-opacity="0.31" stroke-linecap="round"/>
  <path d="M 1345 115 C 1165 248, 1228 388, 1088 508 C 988 595, 868 572, 908 702" fill="none" stroke="#FFA848" stroke-width="1.5" stroke-opacity="0.27" stroke-linecap="round"/>
  <path d="M 1148 48 C 1008 182, 1072 318, 932 432 C 832 518, 718 495, 758 622" fill="none" stroke="#FFA848" stroke-width="0.8" stroke-opacity="0.17" stroke-linecap="round"/>

  <!-- Concentric arcs — top-left -->
  <path d="M 20 208 A 186 186 0 0 1 208 20" fill="none" stroke="#FFA848" stroke-width="1" stroke-opacity="0.27" stroke-linecap="round"/>
  <path d="M 20 260 A 239 239 0 0 1 260 20" fill="none" stroke="#FFA848" stroke-width="0.7" stroke-opacity="0.17" stroke-linecap="round"/>
  <path d="M 20 315 A 292 292 0 0 1 315 20" fill="none" stroke="#FFA848" stroke-width="0.5" stroke-opacity="0.12" stroke-linecap="round"/>

  <!-- Concentric arcs — bottom-right -->
  <path d="M 1180 422 A 186 186 0 0 1 994 610" fill="none" stroke="#FFA848" stroke-width="1" stroke-opacity="0.27" stroke-linecap="round"/>
  <path d="M 1180 370 A 239 239 0 0 1 941 610" fill="none" stroke="#FFA848" stroke-width="0.7" stroke-opacity="0.17" stroke-linecap="round"/>
  <path d="M 1180 315 A 292 292 0 0 1 888 610" fill="none" stroke="#FFA848" stroke-width="0.5" stroke-opacity="0.12" stroke-linecap="round"/>

  <!-- Geometric accents — top-right -->
  <rect x="975" y="50" width="11" height="11" rx="1.5" transform="rotate(45 980.5 55.5)" fill="#FFA848" fill-opacity="0.31"/>
  <circle cx="838" cy="92" r="5" fill="none" stroke="#FFA848" stroke-width="1.5" stroke-opacity="0.37"/>
  <circle cx="838" cy="92" r="10" fill="none" stroke="#FFA848" stroke-width="0.7" stroke-opacity="0.17"/>
  <circle cx="1052" cy="120" r="2.5" fill="#FFA848" fill-opacity="0.27"/>
  <circle cx="1065" cy="112" r="1.7" fill="#FFA848" fill-opacity="0.17"/>
  <circle cx="1060" cy="130" r="1.4" fill="#FFA848" fill-opacity="0.13"/>

  <!-- Geometric accents — bottom-left -->
  <rect x="142" y="528" width="11" height="11" rx="1.5" transform="rotate(45 147.5 533.5)" fill="#FFA848" fill-opacity="0.31"/>
  <circle cx="302" cy="488" r="5" fill="none" stroke="#FFA848" stroke-width="1.5" stroke-opacity="0.37"/>
  <circle cx="302" cy="488" r="10" fill="none" stroke="#FFA848" stroke-width="0.7" stroke-opacity="0.17"/>
  <circle cx="145" cy="396" r="2.5" fill="#FFA848" fill-opacity="0.27"/>
  <circle cx="133" cy="388" r="1.7" fill="#FFA848" fill-opacity="0.17"/>
  <circle cx="139" cy="406" r="1.4" fill="#FFA848" fill-opacity="0.13"/>

  <line x1="0" y1="315" x2="258" y2="315" stroke="#FFA848" stroke-width="0.5" stroke-opacity="0.12"/>
  <line x1="942" y1="315" x2="1200" y2="315" stroke="#FFA848" stroke-width="0.5" stroke-opacity="0.12"/>

  <rect width="1200" height="630" fill="url(#centerVeil)"/>
</svg>
