<svg width="1200" height="630" viewBox="0 0 1200 630" fill="none" xmlns="http://www.w3.org/2000/svg">
  <defs>
    <linearGradient id="og" x1="0" y1="280" x2="1200" y2="350" gradientUnits="userSpaceOnUse">
      <stop offset="0%" stop-color="#FFA848"/>
      <stop offset="100%" stop-color="#FF640D"/>
    </linearGradient>
  </defs>

  <!-- Background — clean white, no dot grid -->
  <rect width="1200" height="630" fill="#FFFFFF"/>

  <!-- ═══════════════════════════════════════════════ -->
  <!--  WAVE FIELD — undulating lines, amplitude       -->
  <!--  peaks at centre, fades to edges                -->
  <!-- ═══════════════════════════════════════════════ -->

  <!-- ── Outer gray lines — top (low amplitude) ── -->
  <g stroke="#EBEBEB" stroke-width="1" fill="none">
    <path d="M0,55  Q100,53  200,55  Q300,57  400,55  Q500,53  600,55  Q700,57  800,55  Q900,53  1000,55  Q1100,57  1200,55"/>
    <path d="M0,77  Q100,74  200,77  Q300,80  400,77  Q500,74  600,77  Q700,80  800,77  Q900,74  1000,77  Q1100,80  1200,77"/>
    <path d="M0,99  Q100,94  200,99  Q300,104 400,99  Q500,94  600,99  Q700,104 800,99  Q900,94  1000,99  Q1100,104 1200,99"/>
  </g>

  <!-- ── Gray lines — upper band (growing amplitude) ── -->
  <g stroke="#E4E4E4" stroke-width="1" fill="none">
    <path d="M0,121 Q100,112 200,121 Q300,130 400,121 Q500,112 600,121 Q700,130 800,121 Q900,112 1000,121 Q1100,130 1200,121"/>
    <path d="M0,143 Q100,130 200,143 Q300,156 400,143 Q500,130 600,143 Q700,156 800,143 Q900,130 1000,143 Q1100,156 1200,143"/>
    <path d="M0,165 Q100,147 200,165 Q300,183 400,165 Q500,147 600,165 Q700,183 800,165 Q900,147 1000,165 Q1100,183 1200,165"/>
    <path d="M0,187 Q100,164 200,187 Q300,210 400,187 Q500,164 600,187 Q700,210 800,187 Q900,164 1000,187 Q1100,210 1200,187"/>
  </g>

  <!-- ── Transition lines — approaching the signal ── -->
  <g stroke="#DEDEDE" stroke-width="1.1" fill="none">
    <path d="M0,209 Q100,181 200,209 Q300,237 400,209 Q500,181 600,209 Q700,237 800,209 Q900,181 1000,209 Q1100,237 1200,209"/>
    <path d="M0,231 Q100,199 200,231 Q300,263 400,231 Q500,199 600,231 Q700,263 800,231 Q900,199 1000,231 Q1100,263 1200,231"/>
    <path d="M0,253 Q100,218 200,253 Q300,288 400,253 Q500,218 600,253 Q700,288 800,253 Q900,218 1000,253 Q1100,288 1200,253"/>
  </g>

  <!-- ── ORANGE SIGNAL BAND — 5 lines at peak amplitude ── -->
  <g stroke="url(#og)" fill="none">
    <path d="M0,275 Q100,238 200,275 Q300,312 400,275 Q500,238 600,275 Q700,312 800,275 Q900,238 1000,275 Q1100,312 1200,275"
          stroke-width="1.2" opacity="0.30"/>
    <path d="M0,297 Q100,258 200,297 Q300,336 400,297 Q500,258 600,297 Q700,336 800,297 Q900,258 1000,297 Q1100,336 1200,297"
          stroke-width="1.3" opacity="0.40"/>
    <path d="M0,319 Q100,280 200,319 Q300,358 400,319 Q500,280 600,319 Q700,358 800,319 Q900,280 1000,319 Q1100,358 1200,319"
          stroke-width="1.5" opacity="0.52"/>
    <path d="M0,341 Q100,302 200,341 Q300,380 400,341 Q500,302 600,341 Q700,380 800,341 Q900,302 1000,341 Q1100,380 1200,341"
          stroke-width="1.3" opacity="0.40"/>
    <path d="M0,363 Q100,326 200,363 Q300,400 400,363 Q500,326 600,363 Q700,400 800,363 Q900,326 1000,363 Q1100,400 1200,363"
          stroke-width="1.2" opacity="0.30"/>
  </g>

  <!-- ── Transition lines — leaving the signal ── -->
  <g stroke="#DEDEDE" stroke-width="1.1" fill="none">
    <path d="M0,385 Q100,350 200,385 Q300,420 400,385 Q500,350 600,385 Q700,420 800,385 Q900,350 1000,385 Q1100,420 1200,385"/>
    <path d="M0,407 Q100,375 200,407 Q300,439 400,407 Q500,375 600,407 Q700,439 800,407 Q900,375 1000,407 Q1100,439 1200,407"/>
    <path d="M0,429 Q100,401 200,429 Q300,457 400,429 Q500,401 600,429 Q700,457 800,429 Q900,401 1000,429 Q1100,457 1200,429"/>
  </g>

  <!-- ── Gray lines — lower band (shrinking amplitude) ── -->
  <g stroke="#E4E4E4" stroke-width="1" fill="none">
    <path d="M0,451 Q100,428 200,451 Q300,474 400,451 Q500,428 600,451 Q700,474 800,451 Q900,428 1000,451 Q1100,474 1200,451"/>
    <path d="M0,473 Q100,455 200,473 Q300,491 400,473 Q500,455 600,473 Q700,491 800,473 Q900,455 1000,473 Q1100,491 1200,473"/>
    <path d="M0,495 Q100,482 200,495 Q300,508 400,495 Q500,482 600,495 Q700,508 800,495 Q900,482 1000,495 Q1100,508 1200,495"/>
    <path d="M0,517 Q100,508 200,517 Q300,526 400,517 Q500,508 600,517 Q700,526 800,517 Q900,508 1000,517 Q1100,526 1200,517"/>
  </g>

  <!-- ── Outer gray lines — bottom (low amplitude) ── -->
  <g stroke="#EBEBEB" stroke-width="1" fill="none">
    <path d="M0,539 Q100,534 200,539 Q300,544 400,539 Q500,534 600,539 Q700,544 800,539 Q900,534 1000,539 Q1100,544 1200,539"/>
    <path d="M0,561 Q100,558 200,561 Q300,564 400,561 Q500,558 600,561 Q700,564 800,561 Q900,558 1000,561 Q1100,564 1200,561"/>
    <path d="M0,583 Q100,581 200,583 Q300,585 400,583 Q500,581 600,583 Q700,585 800,583 Q900,581 1000,583 Q1100,585 1200,583"/>
  </g>

  <!-- ── Crest particles — tiny dots at wave peaks for detail ── -->
  <g fill="#FFA848" opacity="0.35">
    <circle cx="100"  cy="280" r="2.5"/>
    <circle cx="300"  cy="358" r="2"/>
    <circle cx="500"  cy="280" r="2.5"/>
    <circle cx="700"  cy="358" r="2"/>
    <circle cx="900"  cy="280" r="2.5"/>
    <circle cx="1100" cy="358" r="2"/>
  </g>
  <g fill="#D8D8D8" opacity="0.5">
    <circle cx="100"  cy="164" r="1.5"/>
    <circle cx="500"  cy="112" r="1.5"/>
    <circle cx="900"  cy="164" r="1.5"/>
    <circle cx="300"  cy="508" r="1.5"/>
    <circle cx="700"  cy="491" r="1.5"/>
    <circle cx="1100" cy="508" r="1.5"/>
  </g>
</svg>
