<svg xmlns="http://www.w3.org/2000/svg" viewBox="0 0 1200 630" fill="none">
  <defs>
    <linearGradient id="bgGrad" x1="0" y1="0" x2="1200" y2="630" gradientUnits="userSpaceOnUse">
      <stop offset="0%" stop-color="#FFF6E8"/>
      <stop offset="100%" stop-color="#FEF0D8"/>
    </linearGradient>
    <linearGradient id="blobBL" x1="0" y1="630" x2="510" y2="10" gradientUnits="userSpaceOnUse">
      <stop offset="0%" stop-color="#FFA848" stop-opacity="0.29"/>
      <stop offset="63%" stop-color="#FFD4A0" stop-opacity="0.08"/>
      <stop offset="100%" stop-color="#FFA848" stop-opacity="0"/>
    </linearGradient>
    <linearGradient id="blobTR" x1="1200" y1="0" x2="690" y2="620" gradientUnits="userSpaceOnUse">
      <stop offset="0%" stop-color="#FFA848" stop-opacity="0.23"/>
      <stop offset="63%" stop-color="#FFCB87" stop-opacity="0.07"/>
      <stop offset="100%" stop-color="#FFA848" stop-opacity="0"/>
    </linearGradient>
    <radialGradient id="centerVeil" cx="600" cy="315" r="340" gradientUnits="userSpaceOnUse">
      <stop offset="0%" stop-color="#FFF8EE" stop-opacity="0.88"/>
      <stop offset="75%" stop-color="#FFF8EE" stop-opacity="0.3"/>
      <stop offset="100%" stop-color="#FFF8EE" stop-opacity="0"/>
    </radialGradient>
    <pattern id="gridPat" x="0" y="0" width="60" height="60" patternUnits="userSpaceOnUse">
      <path d="M 60 0 L 0 0 0 60" fill="none" stroke="#FFA848" stroke-width="0.5" stroke-opacity="0.12"/>
    </pattern>
    <pattern id="dotPat" x="0" y="0" width="20" height="20" patternUnits="userSpaceOnUse">
      <circle cx="10" cy="10" r="1.2" fill="#FFA848" fill-opacity="0.28"/>
    </pattern>
  </defs>

  <rect width="1200" height="630" fill="url(#bgGrad)"/>
  <rect width="1200" height="630" fill="url(#gridPat)"/>

  <!-- Dot pattern — top-left -->
  <rect x="0" y="0" width="310" height="208" fill="url(#dotPat)" opacity="0.76"/>
  <!-- Dot pattern — bottom-right -->
  <rect x="808" y="348" width="392" height="282" fill="url(#dotPat)" opacity="0.71"/>

  <!-- Wave blob — bottom-left (asymmetric, extends further up) -->
  <path d="M -82 630 C 68 582, 205 512, 272 392 C 372 242, 188 178, 302 58 C 382 -22, 148 -28, -82 0 Z" fill="url(#blobBL)"/>

  <!-- Wave blob — top-right (asymmetric, extends further down) -->
  <path d="M 1282 0 C 1092 98, 918 198, 868 338 C 788 498, 1032 528, 948 618 C 898 688, 1132 678, 1282 630 Z" fill="url(#blobTR)"/>

  <!-- Flowing curves — left side -->
  <path d="M -48 548 C 112 420, 68 275, 200 155 C 282 75, 402 88, 365 -40" fill="none" stroke="#FFD4A0" stroke-width="2" stroke-opacity="0.32" stroke-linecap="round"/>
  <path d="M -48 635 C 142 485, 98 328, 232 198 C 332 108, 452 122, 415 -28" fill="none" stroke="#FFA848" stroke-width="1.5" stroke-opacity="0.28" stroke-linecap="round"/>
  <path d="M -48 462 C 88 360, 48 242, 158 132 C 235 54, 345 66, 312 -46" fill="none" stroke="#FFA848" stroke-width="0.8" stroke-opacity="0.18" stroke-linecap="round"/>

  <!-- Flowing curves — right side -->
  <path d="M 1248 55 C 1082 188, 1148 335, 1008 455 C 908 545, 788 522, 830 654" fill="none" stroke="#FFD4A0" stroke-width="2" stroke-opacity="0.32" stroke-linecap="round"/>
  <path d="M 1348 95 C 1162 235, 1228 375, 1088 495 C 988 582, 868 558, 910 690" fill="none" stroke="#FFA848" stroke-width="1.5" stroke-opacity="0.28" stroke-linecap="round"/>
  <path d="M 1150 35 C 1010 172, 1075 310, 935 425 C 835 512, 718 488, 758 615" fill="none" stroke="#FFA848" stroke-width="0.8" stroke-opacity="0.18" stroke-linecap="round"/>

  <!-- Concentric arcs — top-left -->
  <path d="M 20 212 A 189 189 0 0 1 212 20" fill="none" stroke="#FFA848" stroke-width="1" stroke-opacity="0.28" stroke-linecap="round"/>
  <path d="M 20 264 A 242 242 0 0 1 264 20" fill="none" stroke="#FFA848" stroke-width="0.7" stroke-opacity="0.18" stroke-linecap="round"/>
  <path d="M 20 318 A 296 296 0 0 1 318 20" fill="none" stroke="#FFA848" stroke-width="0.5" stroke-opacity="0.13" stroke-linecap="round"/>

  <!-- Concentric arcs — bottom-right -->
  <path d="M 1180 418 A 189 189 0 0 1 991 608" fill="none" stroke="#FFA848" stroke-width="1" stroke-opacity="0.28" stroke-linecap="round"/>
  <path d="M 1180 366 A 242 242 0 0 1 938 608" fill="none" stroke="#FFA848" stroke-width="0.7" stroke-opacity="0.18" stroke-linecap="round"/>
  <path d="M 1180 312 A 296 296 0 0 1 884 608" fill="none" stroke="#FFA848" stroke-width="0.5" stroke-opacity="0.13" stroke-linecap="round"/>

  <!-- Geometric accents — top-right -->
  <rect x="980" y="54" width="11" height="11" rx="1.5" transform="rotate(45 985.5 59.5)" fill="#FFA848" fill-opacity="0.32"/>
  <circle cx="845" cy="92" r="5" fill="none" stroke="#FFA848" stroke-width="1.5" stroke-opacity="0.38"/>
  <circle cx="845" cy="92" r="10" fill="none" stroke="#FFA848" stroke-width="0.7" stroke-opacity="0.18"/>
  <circle cx="1058" cy="122" r="2.5" fill="#FFA848" fill-opacity="0.28"/>
  <circle cx="1071" cy="114" r="1.7" fill="#FFA848" fill-opacity="0.18"/>
  <circle cx="1066" cy="132" r="1.4" fill="#FFA848" fill-opacity="0.14"/>

  <!-- Geometric accents — bottom-left -->
  <rect x="148" y="530" width="11" height="11" rx="1.5" transform="rotate(45 153.5 535.5)" fill="#FFA848" fill-opacity="0.32"/>
  <circle cx="308" cy="490" r="5" fill="none" stroke="#FFA848" stroke-width="1.5" stroke-opacity="0.38"/>
  <circle cx="308" cy="490" r="10" fill="none" stroke="#FFA848" stroke-width="0.7" stroke-opacity="0.18"/>
  <circle cx="150" cy="398" r="2.5" fill="#FFA848" fill-opacity="0.28"/>
  <circle cx="138" cy="390" r="1.7" fill="#FFA848" fill-opacity="0.18"/>
  <circle cx="144" cy="408" r="1.4" fill="#FFA848" fill-opacity="0.14"/>

  <line x1="0" y1="315" x2="262" y2="315" stroke="#FFA848" stroke-width="0.5" stroke-opacity="0.13"/>
  <line x1="938" y1="315" x2="1200" y2="315" stroke="#FFA848" stroke-width="0.5" stroke-opacity="0.13"/>

  <rect width="1200" height="630" fill="url(#centerVeil)"/>
</svg>
